<?xml version="1.0" encoding="utf-8"?>
<!-- Generator: Adobe Illustrator 17.0.0, SVG Export Plug-In . SVG Version: 6.00 Build 0)  -->
<!DOCTYPE svg PUBLIC "-//W3C//DTD SVG 1.1//EN" "http://www.w3.org/Graphics/SVG/1.1/DTD/svg11.dtd">
<svg version="1.1" id="Layer_1" xmlns="http://www.w3.org/2000/svg" xmlns:xlink="http://www.w3.org/1999/xlink" x="0px" y="0px"
	 width="612px" height="792px" viewBox="0 0 612 792" enable-background="new 0 0 612 792" xml:space="preserve">
<path fill="#FFFFFF" d="M612.051,254.065c-0.005-11.576-2.481-21.806-7.488-30.586c-4.918-8.633-12.284-15.869-22.163-21.59
	c-81.551-47.023-163.182-93.902-244.707-140.973c-21.979-12.689-43.289-12.226-65.105,0.645
	C240.128,80.704,77.612,173.813,29.185,201.863C9.241,213.408-0.464,231.077-0.469,254.044c-0.031,94.566,0,189.13-0.031,283.699
	c0.005,11.323,2.375,21.353,7.162,30.001c4.921,8.895,12.389,16.329,22.497,22.18c48.43,28.05,210.967,121.152,243.42,140.3
	c21.825,12.878,43.135,13.338,65.121,0.645c81.528-47.073,163.163-93.95,244.726-140.973c10.107-5.848,17.576-13.288,22.497-22.175
	c4.779-8.648,7.154-18.678,7.159-30.003C612.082,537.716,612.082,348.634,612.051,254.065z M305.791,599.321
	c-75.492,0-141.383-41.122-176.487-102.193c-17.137-29.814-26.942-64.378-26.942-101.236c0-112.348,91.076-203.427,203.429-203.427
	c75.255,0,140.959,40.87,176.151,101.62l-88.541,50.985c-17.547-30.171-50.199-50.475-87.611-50.475
	c-55.944,0-101.299,45.352-101.299,101.296c0,18.295,4.878,35.444,13.36,50.256c17.461,30.483,50.285,51.043,87.939,51.043
	c37.886,0,70.898-20.821,88.27-51.63l88.409,51.222C447.416,558.034,381.422,599.321,305.791,599.321z M510.627,407.32h-23.299
	v23.307h-23.302V407.32h-23.302V384.02h23.302v-23.302h23.302v23.302h23.299V407.32z M595.654,407.32h-23.302v23.307h-23.307V407.32
	h-23.299V384.02h23.299v-23.302h23.307v23.302h23.302V407.32z"/>
</svg>
