<?xml version="1.0" encoding="utf-8"?>
<!-- Generator: Adobe Illustrator 17.0.0, SVG Export Plug-In . SVG Version: 6.00 Build 0)  -->
<!DOCTYPE svg PUBLIC "-//W3C//DTD SVG 1.1//EN" "http://www.w3.org/Graphics/SVG/1.1/DTD/svg11.dtd">
<svg version="1.1" id="Layer_1" xmlns="http://www.w3.org/2000/svg" xmlns:xlink="http://www.w3.org/1999/xlink" x="0px" y="0px"
	 width="612px" height="792px" viewBox="0 0 612 792" enable-background="new 0 0 612 792" xml:space="preserve">
<g>
	<path fill="#FFFFFF" d="M14.74,118.104l54.331,608.371L304.517,792l235.442-65.524l54.338-608.371H14.74z M484.802,241.803
		l-7.185,73.467h-0.004l-173.306,76.585l-0.412,0.182h167.602l-19.169,227.829l-147.753,44.577l-148.558-45.4L146.431,504.3h73.476
		l4.791,59.436l79.077,20.637l82.26-23.936l5.592-95.757l-249.988-0.824l-0.009-0.111l-0.251,0.111l-5.588-71.818l168.514-72.538h0
		l9.824-4.229H129.4l-8.784-73.467h364.182l0.004-0.002L484.802,241.803L484.802,241.803z"/>
	<path fill="#FFFFFF" d="M223.823,70.22V48.37h31.878V24.462h-55.786v67.574h55.786V70.22H223.823z M310.724,48.37h22.287V24.462
		h-55.792V48.37c7.464,7.464,11.357,11.037,22.152,21.832c-6.311,0-22.152,0.023-22.152,0.022v21.813h55.792V70.22L310.724,48.37
		L310.724,48.37z M389.798,48.37h22.286V24.462H356.29V48.37c7.464,7.464,11.359,11.037,22.154,21.832
		c-6.309,0-22.154,0.023-22.154,0.022v21.813h55.795V70.22L389.798,48.37L389.798,48.37z"/>
</g>
</svg>
