<?xml version="1.0" encoding="utf-8"?>
<!-- Generator: Adobe Illustrator 17.0.0, SVG Export Plug-In . SVG Version: 6.00 Build 0)  -->
<!DOCTYPE svg PUBLIC "-//W3C//DTD SVG 1.1//EN" "http://www.w3.org/Graphics/SVG/1.1/DTD/svg11.dtd">
<svg version="1.1" id="Layer_1" xmlns="http://www.w3.org/2000/svg" xmlns:xlink="http://www.w3.org/1999/xlink" x="0px" y="0px"
	 width="512px" height="512px" viewBox="0 0 512 512" enable-background="new 0 0 512 512" xml:space="preserve">
<path fill-rule="evenodd" clip-rule="evenodd" fill="#FFFFFF" d="M255.343,0C114.319,0,0,114.99,0,256.844
	c0,141.849,114.319,256.843,255.343,256.843c141.019,0,255.344-114.994,255.344-256.843C510.688,114.99,396.362,0,255.343,0z
	 M322.934,156.647c-8.475-0.133-16.95-0.068-25.42-0.045c-11.28,0.036-18.031,5.872-18.737,17.103
	c-0.567,9.004-0.153,18.061-0.361,27.091c-0.077,3.216,1.824,2.996,3.941,2.994c12.877-0.02,25.76,0.129,38.637-0.093
	c3.78-0.066,5.027,0.809,4.595,4.811c-1.621,15.072-3.013,30.172-4.297,45.281c-0.293,3.41-1.84,4.06-4.885,4.009
	c-10.16-0.158-20.33-0.109-30.497-0.044c-7.302,0.044-6.593-1.077-6.593,6.415c-0.034,47.047-0.097,94.097,0.103,141.144
	c0.021,4.969-1.242,6.202-6.129,6.115c-17.452-0.323-34.912-0.339-52.364,0.008c-4.918,0.098-5.727-1.58-5.689-5.993
	c0.187-23.695,0.092-47.387,0.092-71.084c0-24.037-0.092-48.073,0.086-72.107c0.033-4.052-1.106-5.32-5.135-5.154
	c-7.446,0.304-14.912-0.032-22.369,0.142c-3.018,0.077-4.131-0.765-4.098-3.981c0.15-14.996,0.136-30.002,0.016-45.002
	c-0.028-2.885,0.837-3.834,3.737-3.769c7.624,0.176,15.263-0.215,22.872,0.164c4.41,0.217,5.324-1.359,5.231-5.476
	c-0.266-11.414-0.266-22.845-0.017-34.26c0.303-13.941,4.023-26.958,12.279-38.293c10.447-14.356,25.3-20.918,42.435-21.687
	c17.599-0.786,35.242-0.35,52.862-0.541c2.457-0.028,3.19,0.855,3.179,3.258c-0.079,15.168-0.095,30.342,0.011,45.512
	C326.442,155.863,325.567,156.689,322.934,156.647z"/>
</svg>
