<?xml version="1.0" encoding="utf-8"?>
<!-- Generator: Adobe Illustrator 17.0.0, SVG Export Plug-In . SVG Version: 6.00 Build 0)  -->
<!DOCTYPE svg PUBLIC "-//W3C//DTD SVG 1.1//EN" "http://www.w3.org/Graphics/SVG/1.1/DTD/svg11.dtd">
<svg version="1.1" id="Layer_1" xmlns="http://www.w3.org/2000/svg" xmlns:xlink="http://www.w3.org/1999/xlink" x="0px" y="0px"
	 width="612px" height="792px" viewBox="0 0 612 792" enable-background="new 0 0 612 792" xml:space="preserve">
<path fill="#FFFFFF" d="M580.209,395.499L330.47,145.773c-14.374-14.383-37.7-14.383-52.092,0l-51.859,51.859l65.786,65.786
	c15.287-5.166,32.818-1.7,45.004,10.486c12.244,12.264,15.685,29.945,10.394,45.282l63.4,63.402
	c15.339-5.284,33.037-1.866,45.288,10.405c17.122,17.115,17.122,44.855,0,61.981c-17.126,17.129-44.866,17.129-62.001,0
	c-12.879-12.892-16.061-31.806-9.541-47.672l-59.126-59.126l-0.007,155.594c4.286,2.119,8.201,4.919,11.592,8.289
	c17.122,17.115,17.122,44.857,0,61.997c-17.126,17.12-44.879,17.12-61.981,0c-17.122-17.14-17.122-44.879,0-61.995
	c4.103-4.105,8.979-7.356,14.347-9.565V345.454c-5.375-2.194-10.254-5.447-14.347-9.565c-12.973-12.955-16.092-31.989-9.445-47.918
	l-64.85-64.857L29.792,394.344c-14.389,14.396-14.389,37.725,0,52.11l249.743,249.73c14.378,14.385,37.7,14.385,52.096,0
	l248.575-248.57c14.385-14.389,14.385-37.732,0-52.114"/>
</svg>
