<?xml version="1.0" encoding="utf-8"?>
<!-- Generator: Adobe Illustrator 17.0.0, SVG Export Plug-In . SVG Version: 6.00 Build 0)  -->
<!DOCTYPE svg PUBLIC "-//W3C//DTD SVG 1.1//EN" "http://www.w3.org/Graphics/SVG/1.1/DTD/svg11.dtd">
<svg version="1.1" id="Layer_1" xmlns="http://www.w3.org/2000/svg" xmlns:xlink="http://www.w3.org/1999/xlink" x="0px" y="0px"
	 width="512px" height="512px" viewBox="0 0 512 512" enable-background="new 0 0 512 512" xml:space="preserve">
<path fill-rule="evenodd" clip-rule="evenodd" fill="#ff5733" d="M255.343,0C114.319,0,0,114.99,0,256.844
	c0,141.849,114.319,256.843,255.343,256.843c141.019,0,255.344-114.994,255.344-256.843C510.688,114.99,396.362,0,255.343,0z
	 M400.336,269.948l-130.37,130.368c-7.55,7.545-19.782,7.545-27.323,0L111.66,269.34c-7.547-7.545-7.547-19.78,0-27.33l89.81-89.805
	l34.012,34.016c-3.486,8.354-1.85,18.337,4.954,25.132c2.147,2.16,4.706,3.866,7.525,5.017v82.364
	c-2.815,1.159-5.373,2.864-7.525,5.017c-8.98,8.977-8.98,23.525,0,32.515c8.969,8.979,23.525,8.979,32.507,0
	c8.98-8.989,8.98-23.539,0-32.516c-1.779-1.767-3.832-3.236-6.08-4.347l0.004-81.605l31.01,31.01
	c-3.42,8.321-1.751,18.241,5.004,25.003c8.987,8.984,23.536,8.984,32.518,0c8.98-8.982,8.98-23.531,0-32.507
	c-6.425-6.436-15.707-8.228-23.752-5.457l-33.251-33.253c2.775-8.044,0.97-17.317-5.451-23.749
	c-6.391-6.391-15.586-8.209-23.603-5.5l-34.503-34.503l27.199-27.199c7.548-7.543,19.782-7.543,27.321,0l130.981,130.974l-0.002,0
	C407.881,250.159,407.881,262.402,400.336,269.948z"/>
</svg>
