<?xml version="1.0" encoding="utf-8"?>
<!-- Generator: Adobe Illustrator 17.0.0, SVG Export Plug-In . SVG Version: 6.00 Build 0)  -->
<!DOCTYPE svg PUBLIC "-//W3C//DTD SVG 1.1//EN" "http://www.w3.org/Graphics/SVG/1.1/DTD/svg11.dtd">
<svg version="1.1" id="Layer_1" xmlns="http://www.w3.org/2000/svg" xmlns:xlink="http://www.w3.org/1999/xlink" x="0px" y="0px"
	 width="612px" height="792px" viewBox="0 0 612 792" enable-background="new 0 0 612 792" xml:space="preserve">
<g>
	<g>
		<path display="none" fill="#F7410E" d="M66.732-38.898h38.318v37h35.052v-37h38.319V73.149h-38.319V35.629H105.05v37.519H66.735
			L66.732-38.898z M228.813-1.74h-33.732v-37.158h105.805V-1.74h-33.748v74.888h-38.323V-1.74H228.813z M317.675-38.898h39.958
			l24.578,39.371l24.555-39.371h39.971V73.149H408.57V17.611L382.207,57.45h-0.658l-26.381-39.839v55.538h-37.494L317.675-38.898
			L317.675-38.898z M465.804-38.898h38.329v75.012h53.89v37.035h-92.219L465.804-38.898L465.804-38.898z"/>
		<path fill="#F7410E" d="M10.693,124.392l54.813,600.871L311.477,792l246.65-66.832L613,124.392H10.693z M498.666,266.99
			l-3.436,37.359l-1.51,16.566H311.846h-0.26H205.179l6.892,75.464h99.515h0.26H466.54h20.317l-1.84,19.79l-17.721,194.01
			l-1.131,12.454l-154.319,41.797v0.014l-0.345,0.095l-154.456-41.906L146.48,506.921h75.691l5.369,58.772l83.975,22.163
			l0.071-0.019v-0.008l84.097-22.182l8.754-95.578h-92.591h-0.26H143.11l-18.532-203.08l-1.807-19.771h188.815h0.26h188.623
			L498.666,266.99z"/>
	</g>
	<g>
		<path display="none" fill="none" stroke="#FFFFFF" stroke-miterlimit="10" d="M66.732-38.898h38.318v37h35.052v-37h38.319V73.149
			h-38.319V35.629H105.05v37.519H66.735L66.732-38.898z M228.813-1.74h-33.732v-37.158h105.805V-1.74h-33.748v74.888h-38.323V-1.74
			H228.813z M317.675-38.898h39.958l24.578,39.371l24.555-39.371h39.971V73.149H408.57V17.611L382.207,57.45h-0.658l-26.381-39.839
			v55.538h-37.494L317.675-38.898L317.675-38.898z M465.804-38.898h38.329v75.012h53.89v37.035h-92.219L465.804-38.898
			L465.804-38.898z"/>
		<path fill="#FFFFFF" d="M10.693,124.392l54.813,600.871L311.477,792l246.65-66.832L613,124.392H10.693z M498.666,266.99
			l-3.436,37.359l-1.51,16.566H311.846h-0.26H205.179l6.892,75.464h99.515h0.26H466.54h20.317l-1.84,19.79l-17.721,194.01
			l-1.131,12.454l-154.319,41.797v0.014l-0.345,0.095l-154.456-41.906L146.48,506.921h75.691l5.369,58.772l83.975,22.163
			l0.071-0.019v-0.008l84.097-22.182l8.754-95.578h-92.591h-0.26H143.11l-18.532-203.08l-1.807-19.771h188.815h0.26h188.623
			L498.666,266.99z"/>
	</g>
	<g>
		<path display="none" fill="none" stroke="#FFFFFF" stroke-miterlimit="10" d="M66.732-38.898h38.318v37h35.052v-37h38.319V73.149
			h-38.319V35.629H105.05v37.519H66.735L66.732-38.898z M228.813-1.74h-33.732v-37.158h105.805V-1.74h-33.748v74.888h-38.323V-1.74
			H228.813z M317.675-38.898h39.958l24.578,39.371l24.555-39.371h39.971V73.149H408.57V17.611L382.207,57.45h-0.658l-26.381-39.839
			v55.538h-37.494L317.675-38.898L317.675-38.898z M465.804-38.898h38.329v75.012h53.89v37.035h-92.219L465.804-38.898
			L465.804-38.898z"/>
		<path fill="none" stroke="#FFFFFF" stroke-miterlimit="10" d="M10.693,124.392l54.813,600.871L311.477,792l246.65-66.832
			L613,124.392H10.693z M498.666,266.99l-3.436,37.359l-1.51,16.566H311.846h-0.26H205.179l6.892,75.464h99.515h0.26H466.54h20.317
			l-1.84,19.79l-17.721,194.01l-1.131,12.454l-154.319,41.797v0.014l-0.345,0.095l-154.456-41.906L146.48,506.921h75.691
			l5.369,58.772l83.975,22.163l0.071-0.019v-0.008l84.097-22.182l8.754-95.578h-92.591h-0.26H143.11l-18.532-203.08l-1.807-19.771
			h188.815h0.26h188.623L498.666,266.99z"/>
	</g>
</g>
<path fill="#FFFFFF" d="M145.365,28h27.585v27.253h25.232V28h27.586v82.529h-27.585V82.894h-25.232v27.636h-27.584V28H145.365z"/>
<path fill="#FFFFFF" d="M262.042,55.368h-24.283V28h76.165v27.368h-24.295v55.162h-27.585V55.368H262.042z"/>
<path fill="#FFFFFF" d="M326.011,28h28.763l17.693,28.998L390.142,28h28.773v82.529h-27.471V69.623l-18.978,29.344h-0.475
	l-18.991-29.344v40.906h-26.99V28z"/>
<path fill="#FFFFFF" d="M432.644,28h27.593v55.25h38.791v27.279h-66.384V28z"/>
</svg>
