<?xml version="1.0" encoding="utf-8"?>
<!-- Generator: Adobe Illustrator 17.0.0, SVG Export Plug-In . SVG Version: 6.00 Build 0)  -->
<!DOCTYPE svg PUBLIC "-//W3C//DTD SVG 1.1//EN" "http://www.w3.org/Graphics/SVG/1.1/DTD/svg11.dtd">
<svg version="1.1" id="Layer_1" xmlns="http://www.w3.org/2000/svg" xmlns:xlink="http://www.w3.org/1999/xlink" x="0px" y="0px"
	 width="612px" height="612px" viewBox="0 0 612 612" enable-background="new 0 0 612 612" xml:space="preserve">
<g display="none">
	<path display="inline" fill="#4D4D4D" d="M462.154,86.938C427.8,25.642,352.28-13.626,278.055,4.367
		c-61.288,11.79-115.721,58.525-124.243,118.067c-8.591,60.028,24.636,122.412,81.219,151.762
		c17.438,9.045,36.54,14.953,56.186,17.977c1.36,19.688,2.507,39.535,6.111,58.97c-17.645,13.677-16.865,45.238-18.682,64.466
		c-3.984,42.151,0.197,84.572,1.173,126.76c0.983,19.326-0.643,49.437,18.456,62.358c14.776,9.996,53.06,11.175,68.585,2.196
		c22.049-12.752,23.662-44.889,23.469-66.02c-0.391-42.91-2.091-87.453-7.164-130.098c-2.58-21.691-1.898-49.84-24.017-62.469
		c-1.93-18.921-0.919-37.997-2.466-56.938c26.725-4.748,52.298-14.857,73.934-30.358
		C491.344,217.532,496.249,147.772,462.154,86.938z M366.242,421.405c3.618,42.39,8.463,87.739,5.995,130.21
		c-0.951,16.374-1.82,29.431-17.15,38.082c-10.523,5.937-23.008,6.675-35.043,3.787c-0.44-0.106-0.809-0.265-1.232-0.383
		c1.814-0.784,3.58-1.658,5.449-2.339c3.381-1.231,5.765-4.248,4.712-7.773c-0.906-3.031-4.872-5.662-8.299-4.414
		c-5.094,1.855-10.018,3.995-14.798,6.402c-1.78-2.196-3.148-4.675-4.185-7.371c8.613-6.38,17.524-12.37,26.772-17.924
		c7.288-4.375,0.529-15.32-6.809-10.914c-7.879,4.731-15.453,9.854-22.897,15.148c-0.29-2.99-0.454-6.035-0.555-9.08
		c9.066-5.849,18.133-11.698,27.199-17.548c7.105-4.584,0.366-15.543-6.809-10.914c-6.955,4.487-13.91,8.974-20.865,13.462
		c-0.079-2.994-0.177-5.988-0.281-8.983c8.283-7.336,17.026-14.121,26.479-20.128c7.146-4.54,0.402-15.496-6.809-10.913
		c-7.068,4.491-13.824,9.361-20.314,14.531c-0.212-4.875-0.42-9.753-0.634-14.63c8.578-6.207,17.555-11.89,26.903-17.032
		c7.483-4.115,0.701-15.045-6.809-10.914c-7.15,3.933-13.985,8.277-20.694,12.797c-0.099-2.721-0.19-5.442-0.269-8.162
		c8.655-5.563,17.309-11.126,25.964-16.689c7.115-4.573,0.375-15.531-6.809-10.914c-6.486,4.169-12.973,8.339-19.458,12.508
		c-0.028-2.706-0.008-5.41,0.001-8.115c0.595-0.31,1.181-0.694,1.73-1.244c8.871-8.885,18.671-16.662,29.564-23.29
		c7.256-4.414,0.501-15.362-6.809-10.914c-8.592,5.228-16.643,11.123-24.108,17.646c0.136-3.359,0.341-6.717,0.564-10.074
		c9.887-7.619,20.613-14.025,32.165-19.26c7.814-3.541,0.98-14.444-6.809-10.914c-8.473,3.84-16.448,8.384-24.062,13.442
		c0.257-3.156,0.536-6.388,0.902-9.633c8.04-5.286,16.483-9.912,25.399-13.816c7.86-3.441,1.017-14.34-6.809-10.914
		c-5.206,2.279-10.249,4.807-15.153,7.555c3.763-11.455,11.075-20.616,26.615-22.49
		C363.725,354.997,364.314,398.818,366.242,421.405z M340.653,342.601c-8.66-1.162-18.01-0.815-26.433,1.141
		c-2.774-16.343-3.796-33.006-4.889-49.542c9.848,0.597,19.741,0.389,29.571-0.461C340.052,309.996,339.468,326.345,340.653,342.601
		z M335.046,277.272c-74.351,5.419-145.245-37.123-161.276-107.151C157.554,99.28,208.573,34.904,282.838,20.618
		c77.92-18.889,150.607,32.28,175.138,99.329C488.106,202.294,422.389,270.906,335.046,277.272z"/>
	<path display="inline" fill="#4D4D4D" d="M310.43,31.035c-67.111,4.242-135.411,61.649-124.34,128.563
		c10.583,63.967,81.894,104.73,147.317,103.488c72.628-1.378,121.162-47.511,111.001-117.024
		C435.234,83.296,379.653,29.156,310.43,31.035z M417.587,216.078c-18.9,25.307-52.905,33.777-84.18,34.37
		c-55.843,1.061-117.731-31.007-132.224-84.412C184.43,104.303,247.945,47.624,310.43,43.675
		c56.436-1.532,102.231,37.881,117.039,87.79C435.399,158.191,435.229,192.454,417.587,216.078z"/>
	<path display="inline" fill="#4D4D4D" d="M261.751,73.38c-30.779,14.571-49.903,43.432-52.905,75.073
		c-0.047,9.331,1.556,23.549,13.371,26.281c9.157,2.118,16.642-4.766,19.26-12.137c2.502-7.042,1.585-14.821,3.794-22.011
		c3.085-10.04,9.512-19.082,16.837-26.826c8.829-9.335,23.655-14.295,31.378-23.785c4.436-5.45,4.686-14.708-0.776-19.618
		C284.58,63.049,270.021,69.465,261.751,73.38z M266.303,92.798c-10.651,7.995-20.288,17.778-26.976,28.991
		c-3.789,6.351-6.785,13.343-8.426,20.461c-0.505,2.193-0.38,4.757-1.143,6.881c-2.208,6.145-7.507,16.491-7.42-0.677
		c2.094-22.078,13.398-41.802,32.078-55.619c3.005-2.223,26.214-16.577,25.637-8.995C279.952,85.158,268.186,91.385,266.303,92.798z
		"/>
	<path display="inline" fill="#4D4D4D" d="M315.639,57.021c-0.103,0.037-0.182,0.093-0.281,0.133
		c-0.44,0.125-0.883,0.284-1.331,0.504c-10.821,5.31-13.689,19.175-5.716,27.848c8.341,9.073,23.153,7.454,30.151-2.221
		c4.207-5.816,3.228-13.671-0.377-19.564C333.418,56.089,324.127,53.929,315.639,57.021z M326.038,77.547
		c-1.536,1.264-3.558,1.92-5.51,1.161c-4.954-1.927-3.908-7.695-0.032-9.91c2.432-0.773,4.19-0.899,5.59,0.728
		c1.27,1.477,1.871,4.076,1.649,5.933c-0.034,0.164-0.074,0.317-0.116,0.384C327.274,76.384,326.531,77.141,326.038,77.547z
		 M327.773,75.238C327.827,74.855,327.82,74.952,327.773,75.238L327.773,75.238z"/>
</g>
<g display="none">
	<path display="inline" fill="#4D4D4D" d="M169.68,392.489c-0.003,0-0.005,0.001-0.008,0c-2.325-0.289-4.421,1.129-4.561,3.686
		c-0.136,2.465,1.846,3.976,4.071,4.049c2.135,0.071,4.362-1.334,4.268-3.732C173.367,394.366,171.776,392.575,169.68,392.489z
		 M169.565,398.31c-1.101,0.06-2.195-0.25-2.51-1.448c-0.401-1.527,0.926-2.751,2.376-2.494c0.012,0.002,0.022,0.001,0.033,0.003
		c0.067,0.017,0.139,0.029,0.216,0.032c0.984,0.04,1.662,0.852,1.85,1.805C171.781,397.476,170.704,398.248,169.565,398.31z"/>
	<path display="inline" fill="#4D4D4D" d="M196.846,392.346c-2.271-0.272-4.069,1.64-3.982,3.911
		c0.047,1.243,0.618,2.52,1.625,3.253c0.839,0.611,1.893,0.585,2.883,0.66c2.171,0.164,3.467-2.346,3.083-4.309
		C200.032,393.705,199.151,392.376,196.846,392.346z M197.371,398.257c-1.284-0.058-2.368-0.224-2.598-1.779
		c-0.206-1.392,0.696-2.383,2.073-2.219c1.134,0.014,1.391,0.394,1.647,1.448C198.721,396.647,198.675,398.316,197.371,398.257z"/>
	<path display="inline" fill="#4D4D4D" d="M204.407,360.772c-5.632-1.176-11.784-0.852-17.5-1.307
		c-8.679-0.691-17.329-1.232-26.028-1.553c-0.26-1.137-0.572-2.233-1.01-3.204c-0.861-1.911-2.704-2.31-4.506-2.893
		c0.064-0.692-0.12-1.223-0.919-1.66c-1.026-0.561-2.211-0.961-3.315-1.324c-1.431-0.472-4.759-1.162-4.714,1.405
		c0.035,1.977,2.578,2.731,4.055,3.245c1.231,0.428,2.996,0.874,4.06,0.068c1.147,0.392,2.19,0.604,3.04,1.525
		c1.026,1.11,1.077,2.668,1.413,4.149c0.707,3.119,1.514,6.214,2.342,9.301c1.386,5.171,2.889,10.32,4.036,15.554
		c-1.528,0.555-2.671,1.937-2.626,3.746c0.07,2.831,2.72,3.459,4.994,3.515c10.614,0.261,21.241,0.084,31.857,0.11
		c1.207,0.003,1.209-1.911,0-1.913c-6.281-0.015-12.561,0.017-18.842,0.001c-3.34-0.008-6.681-0.031-10.021-0.071
		c-1.306-0.016-4.758,0.531-5.74-0.698c-0.975-1.221,0.143-2.902,1.494-3.024c9.055,0.088,18.115-0.033,27.17,0.073
		c2.214,0.026,6.008,0.438,7.585-1.579c0.669-0.856,0.867-2.153,1.181-3.163c0.677-2.176,1.381-4.344,2.066-6.517
		c1.041-3.304,2.504-6.876,2.846-10.355C207.538,362.026,206.446,361.198,204.407,360.772z M150.695,352.044
		c-0.56-0.201-2.397-0.704-2.684-1.348c-0.219-0.492,0.308-0.867,0.652-0.943c0.208-0.046,0.453,0.029,0.656,0.064
		c0.604,0.103,1.201,0.314,1.779,0.515c0.66,0.229,1.312,0.485,1.954,0.76c0.668,0.286,1.001,0.331,0.816,1.106
		C153.522,353.146,151.291,352.258,150.695,352.044z M205.431,363.295c0.513,1.042-0.655,3.729-0.949,4.775
		c-0.08,0.284-0.169,0.565-0.251,0.849c-2.624-0.138-5.244-0.302-7.861-0.484c0.47-2.148,0.982-4.283,1.557-6.394
		C200.554,362.055,204.838,362.088,205.431,363.295z M202.385,374.947c-0.144,0.455-0.29,0.909-0.435,1.363
		c-2.376-0.1-4.752-0.184-7.128-0.257c0.397-2.072,0.803-4.143,1.238-6.206c2.581,0.181,5.165,0.344,7.753,0.482
		C203.349,371.873,202.872,373.412,202.385,374.947z M187.025,383.991c0.12-2.237,0.257-4.473,0.404-6.708
		c1.9,0.048,3.8,0.097,5.7,0.152c-0.415,2.178-0.832,4.352-1.273,6.512C190.248,383.972,188.637,383.985,187.025,383.991z
		 M187.529,375.85c0.151-2.205,0.316-4.41,0.494-6.613c2.206,0.18,4.412,0.353,6.621,0.514c-0.436,2.08-0.842,4.169-1.242,6.257
		C191.444,375.95,189.487,375.899,187.529,375.85z M167.228,383.837c-0.522-2.415-1.115-4.812-1.745-7.201
		c1.797,0.076,3.594,0.142,5.392,0.202c0.491,2.366,1.024,4.722,1.643,7.059C170.752,383.876,168.988,383.855,167.228,383.837z
		 M162.905,367.145c2.061,0.155,4.12,0.318,6.178,0.488c0.493,2.588,0.976,5.178,1.494,7.76c-1.827-0.061-3.654-0.129-5.481-0.207
		C164.375,372.503,163.626,369.827,162.905,367.145z M173.972,383.901c-0.625-2.323-1.159-4.665-1.652-7.017
		c1.985,0.062,3.971,0.12,5.956,0.171c0.154,2.303,0.313,4.605,0.456,6.908c-1.587-0.014-3.173-0.03-4.758-0.049
		C173.973,383.909,173.973,383.905,173.972,383.901z M172.022,375.439c-0.518-2.557-0.999-5.122-1.486-7.685
		c2.379,0.199,4.757,0.402,7.134,0.607c0.176,2.418,0.347,4.837,0.512,7.256C176.128,375.564,174.075,375.504,172.022,375.439z
		 M170.257,366.295c-0.393-2.04-0.804-4.076-1.252-6.104c2.699,0.14,5.397,0.299,8.094,0.476c0.162,2.083,0.31,4.166,0.464,6.25
		C175.128,366.706,172.693,366.498,170.257,366.295z M179.086,368.482c2.513,0.217,5.026,0.431,7.54,0.639
		c-0.181,2.23-0.348,4.462-0.501,6.694c-2.178-0.054-4.356-0.106-6.533-0.161C179.428,373.263,179.26,370.872,179.086,368.482z
		 M196.475,362.018c-0.561,2.087-1.063,4.196-1.524,6.319c-2.272-0.164-4.543-0.341-6.813-0.525
		c0.176-2.104,0.362-4.207,0.562-6.308c2.528,0.183,5.058,0.349,7.588,0.507C196.342,362.014,196.413,362.015,196.475,362.018z
		 M187.303,361.402c-0.2,2.097-0.387,4.195-0.562,6.294c-2.588-0.214-5.175-0.434-7.762-0.658c-0.154-2.093-0.303-4.187-0.466-6.28
		c2.561,0.174,5.123,0.359,7.687,0.564C186.567,361.351,186.935,361.374,187.303,361.402z M161.274,359.842
		c2.094,0.079,4.185,0.168,6.274,0.271c0.451,2.014,0.863,4.035,1.256,6.061c-2.094-0.172-4.189-0.339-6.286-0.495
		c-0.116-0.439-0.233-0.877-0.347-1.316C161.812,362.971,161.562,361.403,161.274,359.842z M180.141,383.975
		c-0.143-2.295-0.301-4.589-0.455-6.884c2.113,0.053,4.226,0.105,6.339,0.157c-0.148,2.247-0.286,4.496-0.407,6.745
		C183.793,383.995,181.967,383.989,180.141,383.975z M200.479,380.965c-0.9,2.916-2.514,2.846-5.394,2.918
		c-0.596,0.015-1.193,0.024-1.79,0.035c0.433-2.136,0.845-4.285,1.255-6.439c2.317,0.071,4.633,0.152,6.949,0.248
		C201.155,378.806,200.813,379.884,200.479,380.965z"/>
	<path display="inline" fill="#4D4D4D" d="M163.304,394.814c0.358-0.839-0.854-1.57-1.215-0.724
		c-0.791,1.855-0.535,3.829,0.714,5.403c0.57,0.718,1.56-0.303,0.995-1.015C162.988,397.457,162.789,396.022,163.304,394.814z"/>
	<path display="inline" fill="#4D4D4D" d="M160.66,395.876c0.031-0.387-0.345-0.718-0.703-0.718c-0.406,0-0.673,0.33-0.703,0.718
		c-0.057,0.72,0.043,1.466,0.394,2.101c0.444,0.805,1.66,0.082,1.215-0.724C160.631,396.835,160.623,396.342,160.66,395.876z"/>
</g>
<g display="none">
	<path display="inline" fill="#4D4D4D" d="M299.556,361.493c-4.855,3.103-7.764,9.953-5.724,15.583
		c0.662,1.828,1.5,3.605,2.603,5.201c0.57,0.825,1.231,1.545,1.887,2.296c0.982,1.124,1.258,1.995,1.626,3.357
		c0.153,0.564,0.317,0.951,0.56,1.232c-0.422,0.483-0.586,1.16-0.237,1.744c-0.859,1.135-0.477,1.827,0.444,2.249
		c-1.421,2.169,1.561,2.622,4.282,2.639c0.048,0.429,0.106,0.893,0.28,1.25c0.273,0.561,1.005,0.618,1.547,0.609
		c0.611-0.009,1.47-0.067,2.002-0.396c0.504-0.312,0.622-1.021,0.667-1.622c1.563,0.038,3.936,0.158,4.722-0.855
		c0.482-0.622,0.252-1.196-0.188-1.636c0.753-0.416,1.048-1.066,0.431-2.074c0.344-0.544,0.142-1.221-0.413-1.803
		c0.107-0.133,0.207-0.283,0.296-0.474c0.353-0.756,0.143-1.582,0.327-2.377c0.279-1.206,1.056-1.823,1.693-2.789
		c0.942-1.428,2.25-2.812,2.988-4.349c2.417-5.037,1.423-12.059-2.426-16.045C312.244,358.39,305.153,357.915,299.556,361.493z
		 M305.99,371.619c0.132-0.818,0.578-1.291,1.339-1.419c0.537,0.436,0.728,0.997,0.573,1.685c0.028,0.775-0.324,1.464-0.876,2.035
		C306.385,373.26,305.891,372.443,305.99,371.619z M306.945,375.231c0.726,0.607,1.554,1.073,2.316,1.321
		c-1.098,3.864-0.841,8.538-0.619,12.36c-0.474-0.019-0.923-0.038-1.301-0.035c-0.6,0.002-1.229-0.003-1.861-0.029
		c-0.039-1.659,0.114-8.046-0.885-12.475C305.478,376.096,306.306,375.676,306.945,375.231z M307.341,390.227
		c1.593-0.014,3.209-0.092,4.797-0.226c0.394-0.033,0.742-0.071,1.05-0.163c0.97,1.004-1.865,1.214-2.549,1.242
		c-1.08,0.044-2.161,0.02-3.241-0.017c-0.993-0.033-1.987-0.063-2.978-0.126c-0.672-0.043-4.198-0.476-3.015-1.248
		c0.123,0.034,0.257,0.064,0.405,0.091C303.594,390.101,305.532,390.234,307.341,390.227z M312.952,392.583
		c-0.393,0.05-0.786,0.1-1.179,0.15c-0.494,0.045-0.991,0.063-1.487,0.075c-1.108,0.027-2.218-0.012-3.326-0.022
		c-0.895-0.008-1.788-0.022-2.682-0.067c-0.252-0.013-3.613-0.117-3.22-1.14c1.435,0.696,4.064,0.411,5.304,0.459
		c2.111,0.082,4.862,0.491,6.942-0.209C313.186,392.08,313.069,392.331,312.952,392.583z M308.097,396.463
		c-0.365,0.139-0.888,0.173-1.272,0.179c-0.167,0.002-0.403,0.032-0.556-0.044c-0.144-0.071-0.032,0.023-0.126-0.141
		c-0.088-0.153-0.13-0.425-0.157-0.674c1.136-0.031,2.104-0.113,2.515-0.141C308.467,395.986,308.382,396.354,308.097,396.463z
		 M312.947,393.571c-0.327,0.704-0.834,1-1.521,0.888c-0.51,0.03-1.021,0.06-1.531,0.091c-0.867,0.051-1.735,0.104-2.603,0.144
		c-0.683,0.031-6.63,0.235-5.641-1.152c0.016-0.023,0.028-0.046,0.04-0.069c1.841,0.422,4.466,0.318,5.269,0.326
		c0.803,0.008,3.902,0.228,5.953-0.251C312.925,393.554,312.934,393.564,312.947,393.571z M318.948,375.69
		c-0.372,1.815-0.744,2.949-1.885,4.476c-0.927,1.242-1.874,2.511-2.708,3.818c-0.418,0.654-0.78,1.311-0.963,2.076
		c-0.253,1.057,0.149,2.037-1.254,2.592c-0.654,0.259-1.578,0.303-2.502,0.29c-0.223-3.864-0.427-8.371,0.632-12.185
		c1.901,0.161,4.688-0.694,4.2-2.984c-0.699-3.284-3.693-0.96-4.53,0.892c-0.127,0.282-0.243,0.571-0.351,0.866
		c-0.409-0.134-0.778-0.295-1.055-0.449c-0.236-0.131-0.501-0.305-0.768-0.509c1.421-1.322,1.994-3.021,0.55-4.737
		c-1.175-1.396-2.905-0.448-3.279,1.29c-0.266,1.235,0.308,2.452,1.21,3.439c-0.572,0.385-1.232,0.68-1.891,0.863
		c-0.746-2.604-1.995-4.222-4.091-3.144c-1.218,0.627-1.066,2.363-0.275,3.295c0.912,1.074,2.3,1.265,3.676,1.021
		c0.379,1.803,0.37,3.696,0.466,5.527c0.116,2.219,0.233,4.438,0.349,6.657c-0.624-0.055-1.239-0.139-1.82-0.271
		c-0.929-0.211-1.12-0.185-1.501-1.201c-0.252-0.67-0.215-1.394-0.549-2.054c-0.805-1.59-2.453-2.733-3.422-4.248
		c-1.065-1.664-2.125-3.682-2.532-5.638c-0.645-3.092,0.331-6.384,1.981-8.946c2.401-3.727,6.093-5.592,10.406-5.936
		c3.931-0.313,7.946,1.793,10.125,5.165C319.113,368.665,319.653,372.247,318.948,375.69z M310.576,375.77
		c0.02-0.056,0.036-0.113,0.056-0.168c0.246-0.75,0.635-1.412,1.169-1.985c1.742-0.613,2.07-0.051,0.986,1.685
		C312.25,375.823,311.406,375.896,310.576,375.77z M303.411,375.615c-0.29,0.032-0.568,0.039-0.827,0.018
		c-0.676-0.054-2.907-0.792-2.185-2.071c0.98-1.735,2.634,0.919,2.904,1.694C303.344,375.374,303.374,375.495,303.411,375.615z"/>
	<path display="inline" fill="#4D4D4D" d="M325.373,362.145c-1.427,0.659-2.889,1.27-4.168,2.207
		c-0.685,0.502-0.025,1.673,0.668,1.165c1.279-0.937,2.74-1.548,4.168-2.207C326.815,362.952,326.144,361.789,325.373,362.145z"/>
	<path display="inline" fill="#4D4D4D" d="M315.779,358.99c0.98-1.28,1.731-2.674,2.507-4.087c0.416-0.758-0.726-1.439-1.142-0.681
		c-0.717,1.305-1.395,2.631-2.301,3.814C314.326,358.713,315.255,359.674,315.779,358.99z"/>
	<path display="inline" fill="#4D4D4D" d="M307.405,356.161c0.103-1.518,0.151-3.037,0.143-4.558c-0.004-0.868-1.327-0.87-1.323,0
		c0.008,1.522-0.04,3.04-0.143,4.558C306.023,357.027,307.346,357.024,307.405,356.161z"/>
	<path display="inline" fill="#4D4D4D" d="M298.093,358.974c0.471,0.718,1.618,0.043,1.142-0.681
		c-0.893-1.361-1.906-2.707-2.478-4.25c-0.298-0.804-1.578-0.456-1.276,0.359C296.099,356.069,297.127,357.503,298.093,358.974z"/>
	<path display="inline" fill="#4D4D4D" d="M292.624,364.227c-1.307-0.981-2.714-1.758-4.219-2.372
		c-0.79-0.323-1.134,0.982-0.352,1.301c1.396,0.57,2.693,1.328,3.903,2.236C292.642,365.907,293.303,364.736,292.624,364.227z"/>
	<path display="inline" fill="#4D4D4D" d="M302.643,363.203c-3.086,0.918-5.874,4.303-6.303,7.534
		c-0.084,0.637,0.871,0.912,0.957,0.269c0.383-2.888,2.828-6,5.61-6.827C303.518,363.997,303.258,363.021,302.643,363.203z"/>
	<path display="inline" fill="#4D4D4D" d="M303.26,364.941c-0.947,0.136-1.835,0.806-2.41,1.563
		c-0.386,0.509,0.311,1.23,0.701,0.716c0.486-0.641,1.168-1.188,1.972-1.303C304.153,365.827,303.885,364.852,303.26,364.941z"/>
</g>
<g display="none">
	<path fill="#4D4D4D" d="M208.522,231.739c-1.083-3.006-4.479-2.434-7.105-2.527c-3.969-0.14-7.969,0.279-11.929,0.065
		c-0.947-3.402-1.746-6.849-2.651-10.262c-0.774-2.918-2.139-6.221-5.452-6.766c-2.699-0.444-4.226,1.267-5.122,3.641
		c-1.682,4.459-2.653,9.091-4.538,13.492c-4.43-0.011-8.927-0.084-13.343,0.166c-2.053,0.116-4.739,0.291-5.596,2.531
		c-0.974,2.547,0.602,4.52,2.448,5.946c1.537,1.187,3.171,2.25,4.738,3.397c1.784,1.306,4.297,2.675,5.665,4.38
		c1.347,1.679-0.727,5.234-1.395,7.116c-0.716,2.02-1.568,4.044-2.042,6.143c-0.534,2.366-0.724,5.954,1.609,7.502
		c2.346,1.556,5.457-1.409,7.254-2.72c3.319-2.421,6.386-5.166,9.822-7.419c3.039,2.994,6.251,5.815,9.695,8.315
		c2.014,1.461,4.966,3.221,7.395,1.589c2.235-1.502,2.128-4.55,1.399-6.843c-1.343-4.226-2.685-8.432-3.983-12.678
		c3.408-2.502,6.78-5.101,10.095-7.722C207.801,237.257,209.645,234.856,208.522,231.739z M200.931,240.21
		c-2.351,1.818-4.658,3.693-7.058,5.444c-0.322,0.235-0.544,0.63-0.417,1.046c0.864,2.838,1.489,5.749,2.407,8.569
		c0.732,2.25,2.898,5.586,1.981,7.985c-2.212,5.788-13.963-6.414-16.209-8.657c-0.282-0.282-0.757-0.362-1.1-0.145
		c-2.181,1.376-4.217,2.942-6.236,4.552c-2.173,1.733-4.814,4.469-7.465,5.437c-1.059,0.387-2.158,0.269-2.955-0.944
		c-0.343-0.522-0.233-1.737-0.195-2.363c0.088-1.446,0.617-2.895,1.08-4.252c1.189-3.486,2.463-6.945,3.694-10.417
		c0.099-0.28-0.003-0.71-0.234-0.901c-2.025-1.676-4.075-3.317-6.179-4.888c-2.009-1.5-6.41-3.523-7.257-5.959
		c-1.461-4.204,5.307-3.322,7.68-3.352c3.26-0.041,6.518-0.132,9.779-0.13c0.327,0.073,0.67-0.043,0.855-0.459
		c1.13-2.54,2.105-5.134,2.942-7.789c0.801-2.541,1.67-9.674,5.355-8.704c3.508,0.924,3.896,6.271,4.7,9.266
		c0.613,2.285,1.166,4.588,1.814,6.862c0.118,0.416,0.469,0.65,0.876,0.68c2.285,0.17,4.566-0.02,6.853-0.063
		c2.636-0.049,6.14-0.544,8.692,0.191C211.392,233.256,202.725,238.822,200.931,240.21z"/>
	<path display="inline" fill="#4D4D4D" d="M168.86,234.09c-1.504,0.753-2.864,1.741-4.063,2.934
		c-0.629,0.625,0.335,1.607,0.963,0.982c1.12-1.115,2.383-2.014,3.787-2.717C170.334,234.896,169.645,233.697,168.86,234.09z"/>
	<path display="inline" fill="#4D4D4D" d="M173.649,235.012c-2.072,0.85-4.033,1.899-5.88,3.183c-0.72,0.5-0.04,1.705,0.687,1.199
		c1.747-1.214,3.593-2.238,5.554-3.043C174.814,236.022,174.463,234.678,173.649,235.012z"/>
</g>
<g display="none">
	<path display="inline" fill="#4D4D4D" d="M329.91,238.369c-0.074-2.451-0.03-4.904,0.02-7.355c0.031-1.566,0.035-3.116-0.046-4.68
		c-0.065-1.247,0.151-2.838-0.181-4.04c-0.334-1.21-1.249-1.268-2.344-1.322c-2.842-0.138-5.713-0.023-8.559-0.035
		c-6.351-0.027-12.702-0.067-19.054-0.077c-3.345-0.005-6.672,0.08-10.009,0.306c-1.202,0.082-3.21-0.155-4.191,0.702
		c-0.653,0.571-0.733,1.476-0.871,2.273c-0.309,1.784-0.352,3.648-0.423,5.455c-0.156,3.952-0.086,7.908-0.325,11.857
		c-0.195,3.197-0.071,6.386,0.019,9.584c0.051,1.791-0.511,4.684,0.979,6.03c1.536,1.388,4.786,0.791,6.607,0.847
		c3.353,0.103,6.707,0.2,10.061,0.254c6.287,0.101,12.566-0.13,18.847,0.119c2.403,0.095,5.045-0.002,7.417-0.417
		c1.411-0.247,1.85-1.108,1.992-2.471C330.435,249.774,330.079,244.005,329.91,238.369z M287.954,222.713
		c0.593-0.058,1.189-0.072,1.783-0.113c2.447-0.166,4.887-0.284,7.341-0.302c5.264-0.04,10.529,0.023,15.793,0.047
		c2.263,0.01,4.526,0.021,6.789,0.03c2.387,0.01,4.979-0.291,7.341,0.026c1.108,0.148,1.158,0.242,1.357,1.394
		c0.183,1.06,0.118,2.308,0.163,3.386c0.007,0.158,0.005,0.315,0.01,0.473c-14.254-0.527-28.519-0.575-42.776-0.143
		c0.057-0.821,0.126-1.641,0.221-2.459C286.153,223.505,286.436,222.86,287.954,222.713z M328.652,248.989
		c-0.06,1.962-0.013,3.952-0.169,5.91c-0.113,1.421-0.684,1.358-1.966,1.572c-1.321,0.221-2.655,0.39-3.995,0.421
		c-4.925,0.112-9.906-0.119-14.841-0.109c-5.836,0.012-11.669-0.161-17.502-0.342c-1.826-0.057-4.654,0.198-4.769-2.201
		c-0.064-1.351-0.044-2.716-0.084-4.069c-0.087-2.908-0.17-5.809,0.007-8.716c0.259-4.277,0.124-8.587,0.355-12.868
		c14.286-0.434,28.58-0.386,42.864,0.142c0.015,2.025-0.076,4.052-0.086,6.076C328.44,239.542,328.797,244.248,328.652,248.989z"/>
	<path display="inline" fill="#4D4D4D" d="M289.186,226.641c0.86-0.104,1.761-0.611,1.612-1.63
		c-0.132-0.908-0.737-1.522-1.655-1.562c-0.876-0.019-1.517,0.86-1.652,1.675C287.324,226.138,288.283,226.75,289.186,226.641z
		 M288.56,225.188c0.071-0.264,0.274-0.669,0.584-0.662c0.286,0.012,0.473,0.145,0.558,0.413c0.14,0.443-0.11,0.545-0.506,0.619
		c-0.186,0.035-0.342,0.033-0.518-0.047C288.494,225.427,288.504,225.392,288.56,225.188z"/>
	<path display="inline" fill="#4D4D4D" d="M293.607,226.589c0.978,0.083,1.67-0.648,1.775-1.6c0.109-0.986-0.633-1.682-1.579-1.703
		c-0.85-0.044-1.767,0.585-1.814,1.5C291.939,225.746,292.694,226.512,293.607,226.589z M293.044,224.799
		c0.072-0.325,0.474-0.452,0.759-0.437c0.345,0.008,0.583,0.189,0.534,0.549c-0.055,0.4-0.302,0.673-0.719,0.601
		C293.302,225.458,292.964,225.161,293.044,224.799z"/>
	<path display="inline" fill="#4D4D4D" d="M298.357,226.512c0.867-0.055,1.616-0.808,1.617-1.71c0.001-0.9-0.847-1.696-1.717-1.66
		c-0.947,0.039-1.652,0.85-1.715,1.8C296.475,225.961,297.43,226.57,298.357,226.512z M298.257,224.217
		c0.762-0.031,0.878,1.073,0.117,1.214c-0.301,0.056-0.76-0.072-0.784-0.414C297.565,224.647,297.896,224.232,298.257,224.217z"/>
	<path display="inline" fill="#4D4D4D" d="M301.133,233.441c-1.466-1.216-3.516-0.188-4.822,0.736
		c-2.459,1.741-4.478,3.924-6.801,5.83c-3.531,3.151,0.743,6.588,3.192,8.459c1.657,1.266,3.647,3.005,5.672,3.618
		c1.339,0.405,3.404-0.129,3.501-1.846c0.096-1.699-2.475-3.396-3.593-4.396c-0.684-0.612-1.402-1.189-2.148-1.721
		c-0.326-0.232-0.662-0.449-0.991-0.676c-0.721-0.497-1.007-0.391-0.565-1.106C295.694,240.538,304.504,236.237,301.133,233.441z
		 M293.433,243.539c0.781,0.993,2.49,1.696,3.473,2.518c0.77,0.644,1.482,1.346,2.198,2.051c0.289,0.284,1.174,0.859,1.294,1.27
		c0.592,2.013-0.997,1.869-1.971,1.542c0.092-0.07,0.185-0.139,0.277-0.209c0.229-0.173,0.344-0.466,0.189-0.736
		c-0.132-0.23-0.491-0.367-0.721-0.193c-0.206,0.156-0.413,0.311-0.619,0.467c-0.075,0.056-0.131,0.128-0.176,0.206
		c-0.22-0.114-0.439-0.235-0.656-0.365c0.077-0.056,0.154-0.113,0.238-0.164c0.581-0.356,0.052-1.286-0.532-0.929
		c-0.229,0.14-0.441,0.306-0.642,0.484c-0.262-0.181-0.52-0.367-0.775-0.559c0.147-0.079,0.294-0.159,0.44-0.238
		c0.6-0.324,0.068-1.253-0.532-0.929c-0.279,0.151-0.558,0.302-0.837,0.453c-0.168-0.132-0.335-0.264-0.499-0.393
		c0.085-0.059,0.171-0.117,0.263-0.169c0.592-0.339,0.061-1.268-0.532-0.929c-0.212,0.121-0.408,0.267-0.597,0.422
		c-0.239-0.184-0.5-0.384-0.768-0.6c0.134-0.109,0.274-0.205,0.436-0.284c0.257-0.124,0.324-0.501,0.189-0.736
		c-0.154-0.269-0.463-0.318-0.721-0.193c-0.269,0.13-0.509,0.311-0.727,0.517c-0.195-0.176-0.386-0.358-0.568-0.547
		c0.169-0.114,0.338-0.228,0.506-0.342c0.563-0.38,0.036-1.312-0.532-0.929c-0.221,0.149-0.442,0.298-0.663,0.448
		c-0.245-0.349-0.435-0.71-0.543-1.08c0.167,0,0.334,0,0.501,0c0.678,0,0.68-1.076,0-1.076c-0.185,0-0.371,0-0.556,0
		c0.067-0.331,0.218-0.665,0.473-1c0.195,0.212,0.393,0.419,0.626,0.589c0.232,0.169,0.587,0.041,0.721-0.193
		c0.155-0.271,0.043-0.566-0.189-0.736c0.084,0.062-0.086-0.08-0.102-0.095c-0.067-0.065-0.131-0.133-0.195-0.201
		c-0.037-0.039-0.073-0.079-0.11-0.118c0.177-0.149,0.353-0.298,0.526-0.451c0.205,0.201,0.398,0.411,0.576,0.638
		c0.178,0.227,0.56,0.189,0.746,0c0.22-0.225,0.178-0.533,0-0.761c-0.164-0.21-0.342-0.404-0.53-0.591
		c0.251-0.231,0.501-0.462,0.751-0.693c0.199,0.182,0.403,0.359,0.593,0.551c0.483,0.488,1.229-0.273,0.746-0.761
		c-0.177-0.179-0.366-0.344-0.552-0.513c0.288-0.261,0.58-0.518,0.876-0.769c0.188,0.224,0.39,0.43,0.584,0.651
		c0.454,0.516,1.198-0.246,0.746-0.76c-0.165-0.187-0.361-0.353-0.516-0.549c0.133-0.103,0.264-0.207,0.399-0.307
		c0.194-0.142,0.383-0.292,0.57-0.443c0.097,0.135,0.194,0.271,0.291,0.406c0.168,0.234,0.458,0.35,0.721,0.193
		c0.227-0.135,0.358-0.5,0.189-0.736c-0.124-0.173-0.248-0.347-0.372-0.52c0.237-0.181,0.483-0.348,0.739-0.501
		c0.015,0.019,0.028,0.038,0.046,0.057c0.156,0.155,0.312,0.311,0.468,0.466c0.486,0.484,1.232-0.276,0.746-0.76
		c-0.089-0.089-0.179-0.178-0.268-0.267c0.655-0.256,1.218-0.255,1.65,0.569c0.547,1.042-0.027,1.286-0.724,2.01
		c-1.742,1.81-3.972,3.059-5.732,4.815C293.101,242.197,292.83,242.772,293.433,243.539z"/>
	<path display="inline" fill="#4D4D4D" d="M321.22,236.654c-1.657-1.266-3.647-3.005-5.672-3.618
		c-1.339-0.405-3.404,0.129-3.501,1.846c-0.096,1.699,2.475,3.396,3.593,4.396c0.684,0.612,1.402,1.189,2.148,1.721
		c0.326,0.232,0.662,0.449,0.991,0.676c0.721,0.497,1.008,0.391,0.565,1.106c-1.115,1.802-9.926,6.103-6.555,8.899
		c1.466,1.215,3.516,0.188,4.822-0.736c2.459-1.741,4.478-3.924,6.801-5.83C327.943,241.962,323.67,238.525,321.22,236.654z
		 M323.667,244.353c-1.784,1.463-3.321,3.155-5.183,4.518c-0.814,0.596-1.532,1.316-2.433,1.779
		c-0.956,0.49-1.768,0.861-2.346-0.242c-0.237-0.452-0.256-0.751-0.153-1.006c0.255,0.207,0.507,0.419,0.772,0.614
		c0.231,0.17,0.587,0.041,0.721-0.193c0.156-0.271,0.042-0.565-0.189-0.736c-0.213-0.157-0.419-0.325-0.624-0.494
		c0.064-0.062,0.129-0.125,0.197-0.195c0.155-0.16,0.317-0.312,0.478-0.464c0.214,0.232,0.426,0.467,0.664,0.675
		c0.216,0.189,0.534,0.216,0.746,0c0.19-0.194,0.217-0.571,0-0.76c-0.22-0.193-0.418-0.408-0.616-0.623
		c0.253-0.213,0.511-0.421,0.771-0.626c0.217,0.284,0.432,0.57,0.678,0.829c0.474,0.497,1.219-0.264,0.746-0.76
		c-0.213-0.223-0.401-0.467-0.589-0.713c0.215-0.164,0.43-0.328,0.644-0.492c0.201,0.191,0.368,0.405,0.548,0.62
		c0.185,0.221,0.555,0.194,0.746,0c0.215-0.219,0.186-0.539,0-0.76c-0.15-0.179-0.295-0.355-0.453-0.522
		c0.278-0.226,0.548-0.459,0.813-0.697c0.134,0.101,0.259,0.21,0.375,0.335c0.468,0.503,1.213-0.258,0.746-0.76
		c-0.109-0.117-0.226-0.225-0.348-0.326c0.193-0.221,0.329-0.437,0.396-0.657c0.218,0.014,0.437,0.028,0.655,0.041
		c0.285,0.018,0.527-0.26,0.527-0.538c0-0.306-0.242-0.52-0.527-0.538c-0.309-0.019-0.617-0.039-0.926-0.058
		c-0.005-0.007-0.008-0.013-0.014-0.02c-0.133-0.169-0.3-0.328-0.479-0.483c0.169-0.081,0.338-0.162,0.507-0.243
		c0.258-0.124,0.324-0.501,0.189-0.736c-0.154-0.269-0.463-0.317-0.721-0.193c-0.319,0.153-0.638,0.306-0.957,0.46
		c-0.167-0.107-0.335-0.212-0.505-0.316c0.143-0.071,0.286-0.142,0.429-0.212c0.256-0.127,0.325-0.499,0.189-0.736
		c-0.153-0.267-0.464-0.32-0.721-0.193c-0.289,0.143-0.578,0.286-0.867,0.429c-0.026,0.013-0.042,0.038-0.065,0.056
		c-0.168-0.115-0.328-0.232-0.471-0.351c-0.064-0.054-0.123-0.113-0.187-0.167c0.198-0.112,0.4-0.218,0.607-0.316
		c0.258-0.123,0.323-0.502,0.189-0.736c-0.155-0.27-0.462-0.316-0.721-0.193c-0.312,0.148-0.612,0.318-0.906,0.499
		c-0.203-0.19-0.403-0.384-0.603-0.578c0.116-0.073,0.236-0.14,0.357-0.191c0.263-0.111,0.45-0.356,0.368-0.662
		c-0.068-0.253-0.384-0.488-0.648-0.376c-0.313,0.133-0.588,0.297-0.858,0.491c-0.148-0.12-0.329-0.261-0.505-0.41
		c0.13-0.116,0.267-0.218,0.424-0.304c0.599-0.326,0.067-1.255-0.532-0.929c-0.186,0.101-0.358,0.229-0.521,0.367
		c-0.467-1.927,1.268-1.652,2.183-1.3c1.888,0.727,3.712,2.301,5.299,3.532C322.793,239.212,326.499,241.825,323.667,244.353z"/>
	<path display="inline" fill="#4D4D4D" d="M308.315,232.836c-1.545-0.045-1.998,1.355-2.425,2.671
		c-0.95,2.925-1.682,5.933-2.234,8.962c-0.289,1.585-2.231,8.382,1.311,7.957c1.394-0.167,2.267-1.663,2.702-2.857
		c0.919-2.525,1.42-5.325,1.967-7.957c0.268-1.285,0.504-2.576,0.746-3.866c0.164-0.875,0.616-2.011,0.503-2.917
		C310.704,233.382,309.628,232.871,308.315,232.836z M308.292,242.842c-0.261,1.173-0.544,2.341-0.844,3.505
		c-0.381,1.477-0.684,4.441-2.491,4.387c-0.992-0.029-1.044-0.123-1.006-0.775c0.127,0.022,0.254,0.062,0.374,0.104
		c0.269,0.094,0.576-0.108,0.649-0.376c0.08-0.295-0.098-0.567-0.368-0.662c-0.193-0.068-0.387-0.104-0.587-0.134
		c0.019-0.193,0.043-0.387,0.071-0.581c0.233,0.045,0.469,0.077,0.706,0.082c0.679,0.015,0.679-1.06,0-1.076
		c-0.185-0.004-0.361-0.028-0.54-0.066c0.018-0.109,0.036-0.218,0.052-0.326c0.009-0.057,0.02-0.113,0.028-0.169
		c0.23,0.028,0.457,0.067,0.684,0.125c0.658,0.168,0.939-0.869,0.28-1.037c-0.26-0.066-0.524-0.11-0.789-0.145
		c0.053-0.314,0.1-0.63,0.157-0.943c0.302,0.038,0.597,0.115,0.882,0.223c0.267,0.101,0.578-0.113,0.649-0.376
		c0.081-0.301-0.1-0.56-0.368-0.662c-0.311-0.118-0.63-0.185-0.955-0.232c0.046-0.233,0.09-0.466,0.138-0.698
		c0.24,0.056,0.48,0.112,0.72,0.168c0.661,0.154,0.943-0.882,0.28-1.037c-0.264-0.062-0.528-0.123-0.792-0.185
		c0.043-0.227,0.093-0.488,0.149-0.777c0.166,0.045,0.332,0.089,0.498,0.134c0.657,0.176,0.937-0.861,0.28-1.037
		c-0.189-0.051-0.377-0.101-0.566-0.152c0.028-0.134,0.057-0.269,0.087-0.407c0.297,0.065,0.595,0.13,0.892,0.194
		c0.278,0.061,0.57-0.084,0.649-0.376c0.072-0.268-0.089-0.601-0.368-0.662c-0.311-0.068-0.622-0.136-0.934-0.203
		c0.051-0.213,0.104-0.426,0.16-0.639c0.204,0.046,0.41,0.076,0.612,0.131c0.656,0.179,0.936-0.858,0.28-1.037
		c-0.199-0.054-0.401-0.085-0.602-0.129c0.041-0.136,0.083-0.27,0.126-0.402c0.194,0.029,0.378,0.076,0.563,0.146
		c0.267,0.102,0.578-0.114,0.648-0.376c0.081-0.302-0.101-0.559-0.368-0.661c-0.153-0.059-0.308-0.098-0.467-0.128
		c0.067-0.159,0.136-0.308,0.206-0.449c0.163,0.076,0.335,0.132,0.511,0.159c0.281,0.042,0.567-0.072,0.649-0.376
		c0.068-0.253-0.085-0.619-0.368-0.661c-0.063-0.01-0.116-0.03-0.172-0.046c0.199-0.194,0.408-0.3,0.627-0.294
		C310.826,233.979,308.567,241.61,308.292,242.842z"/>
</g>
<g display="none">
	<path display="inline" fill="#4D4D4D" d="M458.756,232.952c-0.367-0.182-0.834-0.259-1.323-0.288
		c0.209-2.555,0.456-5.107,0.903-7.631c0.001-0.006,0-0.011,0.001-0.016c0.572-0.082,1.067-0.235,1.402-0.505
		c1.561-1.252,1.308-6.294-1.074-6.514c-2.937-0.102-5.915-0.127-8.853-0.082c-1.604,0.024-4.33-0.524-5.75,0.267
		c-1.326,0.739-1.267,2.734-1.224,4.107c0.048,1.553,0.31,2.363,1.847,2.548c0.138,2.51,0.379,5.008,0.653,7.506
		c0.004,0.04,0.015,0.076,0.024,0.113c-1.142-0.044-2.285-0.078-3.429-0.069c-1.338,0.011-4.762-0.623-5.855,0.322
		c-0.728,0.629-0.771,2.802,0.017,3.424c0.267,0.211,0.708,0.307,1.195,0.349c-0.002,0.052-0.002,0.104-0.003,0.155
		c-0.766,0.015-1.532,0.007-2.298-0.026c-0.485-0.476-1.304-0.59-1.949-0.614c-0.901-0.025-1.43,0.234-1.738,0.67
		c-0.7-0.005-1.399-0.035-2.098-0.081c0-0.031-0.001-0.062-0.001-0.094c0.447-0.039,0.853-0.129,1.127-0.33
		c0.844-0.618,0.895-2.8,0.087-3.454c-1.158-0.937-4.466-0.311-5.855-0.322c-1.143-0.009-2.285,0.024-3.426,0.069
		c0.008-0.037,0.017-0.073,0.021-0.113c0.21-2.504,0.525-4.995,0.653-7.506c1.54-0.175,1.8-1.011,1.847-2.548
		c0.038-1.218,0.108-3.276-1.041-4.018c-1.407-0.908-4.311-0.329-5.933-0.356c-2.937-0.048-5.917-0.019-8.853,0.082
		c-2.372,0.219-2.6,5.145-1.133,6.467c0.333,0.3,0.853,0.466,1.462,0.553c0.001,0.005,0,0.009,0.001,0.014
		c0.447,2.525,0.694,5.078,0.903,7.634c-0.491,0.03-0.96,0.106-1.323,0.286c-1.161,0.575-1.387,2.504-0.361,3.346
		c0.336,0.276,0.91,0.428,1.584,0.509c0.59,3.439,0.834,6.925,1.436,10.362c-0.314,0.054-0.598,0.145-0.802,0.316
		c-0.798,0.67-0.766,2.779-0.009,3.448c0.993,0.878,4.607,0.329,5.77,0.331c1.164,0.002,2.327-0.072,3.49-0.142
		c0.135,1.545,0.079,3.089,0.102,4.636c-0.055,0.014-0.113,0.024-0.165,0.041c-1.715,0.581-1.697,4.268-0.318,5.234
		c0.96,0.672,2.995,0.272,4.093,0.286c2.246,0.027,4.517,0.017,6.762-0.058c1.895-0.212,2.178-3.954,1.004-5.107
		c-0.251-0.247-0.62-0.394-1.05-0.478c-0.037-1.635-0.066-3.268-0.027-4.903c1.086-0.482,1.685-1.899,0.843-3.037
		c-0.196-0.265-0.489-0.451-0.837-0.583c0-0.046,0-0.091,0-0.137c0.243-0.018,0.486-0.044,0.733-0.053
		c0.401-0.016,0.801,0.017,1.2,0.055c0.17,0.666,0.393,0.781,1.152,0.873c0.701,0.085,2.384,0.229,2.917-0.426
		c0.093-0.114,0.144-0.257,0.174-0.41c0.586,0.021,1.214,0.054,1.809-0.011c0,0.037,0,0.073,0.001,0.11
		c-0.348,0.133-0.641,0.317-0.837,0.583c-0.848,1.147-0.246,2.553,0.837,3.035c-0.101,1.636-0.006,3.273-0.016,4.911
		c-0.39,0.083-0.732,0.215-0.985,0.426c-1.278,1.065-0.944,4.942,0.945,5.153c2.159,0.072,4.345,0.087,6.504,0.062
		c1.207-0.014,3.123,0.362,4.212-0.222c1.543-0.827,1.562-4.711-0.179-5.302c-0.051-0.017-0.112-0.025-0.166-0.041
		c0.021-1.548-0.043-3.091,0.091-4.637c1.163,0.069,2.326,0.144,3.49,0.142c1.168-0.002,4.806,0.564,5.77-0.331
		c0.751-0.698,0.814-2.757-0.009-3.448c-0.192-0.162-0.481-0.249-0.804-0.303c0.68-3.427,0.979-6.909,1.438-10.37
		c0.675-0.084,1.248-0.238,1.585-0.514C460.152,235.45,459.925,233.531,458.756,232.952z M444.022,222.821
		c-0.164-0.371-0.018-1.096,0.003-1.484c0.029-0.542,0.103-0.967,0.274-1.304c0.292,0.608,0.583,1.216,0.875,1.824
		c0.331,0.689,1.34,0.085,1.01-0.602c-0.318-0.662-0.635-1.324-0.953-1.985c0.12-0.042,0.256-0.078,0.402-0.11
		c0.427,0.621,0.843,1.25,1.242,1.889c0.403,0.645,1.416,0.048,1.01-0.602c-0.3-0.48-0.617-0.948-0.932-1.417
		c0.208-0.003,0.419-0.001,0.632,0.005c0,0,0,0.001,0.001,0.002c0.365,0.522,0.681,1.071,0.949,1.651
		c0.135,0.291,0.545,0.366,0.8,0.214c0.293-0.174,0.345-0.523,0.21-0.816c-0.158-0.342-0.338-0.67-0.53-0.992
		c0.249,0.009,0.493,0.015,0.726,0.013c0.024,0.052,0.052,0.102,0.094,0.151c0.415,0.49,0.791,1.005,1.136,1.548
		c0.408,0.642,1.42,0.045,1.01-0.602c-0.241-0.38-0.503-0.744-0.775-1.101c0.292-0.002,0.585-0.002,0.878-0.003
		c0.019,0.031,0.039,0.062,0.065,0.092c0.411,0.474,0.751,0.994,1.036,1.556c0.346,0.682,1.355,0.079,1.01-0.602
		c-0.186-0.368-0.401-0.717-0.637-1.051c0.236,0.001,0.471-0.004,0.707-0.002c0.334,0.531,0.688,1.048,1.064,1.549
		c0.192,0.255,0.503,0.391,0.8,0.214c0.246-0.147,0.403-0.559,0.21-0.816c-0.225-0.299-0.441-0.605-0.651-0.915
		c0.228,0.004,0.455,0.01,0.683,0.015c0.006,0.011,0.009,0.023,0.015,0.034c0.401,0.698,0.852,1.358,1.34,1.995
		c0.194,0.254,0.623,0.208,0.827,0c0.246-0.251,0.195-0.589,0-0.843c-0.283-0.37-0.542-0.76-0.79-1.155
		c0.301,0.009,0.605,0.009,0.905,0.02c0.657,0.061,0.741,2.171,0.639,2.699c-0.174,0.9-0.438,1.485-1.423,1.747
		c-1.346,0.358-3.2,0.065-4.593,0.073c-1.591,0.009-3.181,0.004-4.772-0.013C447.37,223.684,444.622,224.178,444.022,222.821z
		 M446.898,232.342c-0.269-2.457-0.506-4.913-0.645-7.381c2.328,0.118,4.746-0.047,7.036-0.059c0.806-0.005,2.166,0.168,3.468,0.191
		c-0.42,2.507-0.675,5.038-0.882,7.572c-0.185,0.005-0.363,0.008-0.521,0.005c-1.675-0.031-3.349,0.034-5.024-0.008
		c-1.144-0.036-2.287-0.092-3.43-0.144C446.905,232.463,446.905,232.405,446.898,232.342z M435.455,242.372
		c-0.019-0.796-0.049-1.591-0.078-2.387c0.618-0.023,1.235-0.014,1.853,0.033c-0.008,1.078-0.009,2.157-0.004,3.235
		c-0.233-0.009-0.468,0.012-0.713,0.029c-0.341,0.024-0.685,0.024-1.028,0.025C435.473,242.994,435.462,242.682,435.455,242.372z
		 M437.262,237.83c-0.007,0.332-0.017,0.663-0.022,0.996c-0.632-0.048-1.264-0.058-1.897-0.032c0.005-0.282,0.034-0.635,0.034-0.978
		C436.005,237.836,436.633,237.842,437.262,237.83z M429.255,243.245c-0.006-1.169-0.015-2.337-0.025-3.506
		c0.579-0.045,1.164-0.023,1.737,0.064c0.021,0.361,0.04,0.723,0.039,1.077c0,0.765-0.042,1.604-0.065,2.453
		C430.383,243.351,429.815,243.297,429.255,243.245z M430.934,237.852c-0.022,0.239-0.027,0.493-0.022,0.756
		c-0.567-0.066-1.127-0.084-1.692-0.048c-0.002-0.26-0.004-0.52-0.006-0.78C429.787,237.818,430.36,237.842,430.934,237.852z
		 M416.166,232.662c-1.675,0.042-3.349-0.024-5.024,0.008c-0.156,0.003-0.335,0-0.521-0.005c-0.207-2.533-0.461-5.063-0.882-7.569
		c1.313-0.024,2.681-0.199,3.468-0.195c2.294,0.013,4.706,0.168,7.035,0.054c-0.132,2.47-0.438,4.922-0.645,7.387
		c-0.005,0.063-0.004,0.121,0.002,0.176C418.456,232.571,417.312,232.626,416.166,232.662z M407.192,221.889
		c-0.048-0.232-0.063-0.717-0.019-1.213c0.138,0.201,0.276,0.402,0.415,0.603c0.181,0.263,0.511,0.386,0.8,0.214
		c0.255-0.152,0.392-0.551,0.21-0.816c-0.321-0.467-0.642-0.933-0.963-1.4c0.059-0.047,0.124-0.081,0.196-0.088
		c0.176-0.006,0.355-0.006,0.532-0.012c0.459,0.673,0.947,1.326,1.463,1.955c0.484,0.589,1.307-0.258,0.827-0.843
		c-0.304-0.371-0.593-0.754-0.874-1.142c0.227-0.005,0.453-0.01,0.68-0.015c0.404,0.637,0.852,1.243,1.345,1.812
		c0.499,0.576,1.324-0.27,0.827-0.843c-0.277-0.32-0.531-0.655-0.775-0.999c0.293-0.003,0.584-0.005,0.877-0.007
		c0.38,0.636,0.791,1.249,1.234,1.841c0.191,0.256,0.504,0.391,0.8,0.214c0.247-0.147,0.402-0.558,0.21-0.816
		c-0.3-0.4-0.579-0.814-0.85-1.234c0.293,0,0.585,0.001,0.877,0.003c0.284,0.477,0.568,0.954,0.852,1.431
		c0.39,0.655,1.402,0.057,1.01-0.602c-0.164-0.275-0.327-0.55-0.491-0.824c0.103,0.001,0.208-0.001,0.311,0.001
		c0.176,0.003,0.36-0.002,0.541-0.004c0.349,0.59,0.724,1.162,1.129,1.714c0.189,0.257,0.505,0.39,0.8,0.214
		c0.248-0.148,0.4-0.557,0.21-0.816c-0.272-0.37-0.526-0.751-0.773-1.138c0.278-0.005,0.554-0.006,0.828,0
		c0.028,0.073,0.068,0.143,0.119,0.208c0.441,0.561,0.881,1.122,1.322,1.684c0.198,0.252,0.621,0.21,0.827,0
		c0.244-0.249,0.198-0.591,0-0.843c-0.233-0.296-0.465-0.593-0.698-0.889c1.004,0.212,1.38,0.642,1.47,1.769
		c0.028,0.345,0.169,1.473,0.016,1.816c-0.569,1.277-2.981,0.857-4.074,0.87c-1.731,0.021-3.462,0.027-5.192,0.017
		c-1.304-0.007-2.931,0.226-4.205-0.062C407.872,223.392,407.442,223.108,407.192,221.889z M408.425,234.364
		c0.515-0.608,0.447-0.303,0.996-0.437c2.046-0.501,4.65-0.02,6.746-0.072c3.505-0.11,6.984-0.235,10.491-0.253
		c0.623-0.003,1.403-0.155,2.016-0.016c1.174,0.266,1.448,1.282,0.11,1.614c-1.935,0.48-4.475,0.383-6.467,0.349
		c-3.431-0.059-6.871,0.194-10.3,0.037c-0.867-0.04-1.868,0.01-2.708-0.176C408.504,235.231,407.775,235.132,408.425,234.364z
		 M413.419,236.819c2.845,0.033,5.686-0.132,8.53-0.083c1.693,0.029,3.366-0.099,5.053-0.221c0.184-0.013,0.407-0.012,0.644-0.008
		c0.022,3.451,0.073,6.916,0.051,10.366c-1.1-0.059-2.287,0.059-3.029,0.03c-2.539-0.1-5.075,0.115-7.613,0.073
		c-1.546-0.025-3.032-0.054-4.579,0.102c-0.164,0.017-0.359,0.019-0.566,0.02c0.017-0.095,0.021-0.196,0.001-0.305
		c-0.578-3.284-0.83-6.614-1.363-9.905C411.658,236.888,412.767,236.811,413.419,236.819z M413.107,250.027
		c-0.742,0-3.763,0.397-2.843-1.176c0.715-1.222,5.185-0.723,6.305-0.696c3.103,0.075,6.201-0.192,9.305,0.007
		c0.775,0.05,2.266-0.126,2.824,0.474c0.864,0.929-0.696,1.144-1.535,1.17c-2.067,0.064-4.133-0.021-6.2,0.021
		C418.332,249.9,415.741,250.027,413.107,250.027z M420.963,251.02c2.119-0.043,4.536,0.307,6.722,0.071
		c-0.028,1.499-0.004,2.998,0.03,4.497c-0.925,0.03-1.854,0.15-2.433,0.147c-1.217-0.007-2.435-0.001-3.652,0.014
		c-0.329,0.004-0.72-0.029-1.121-0.054c-0.021-1.534,0.033-3.063-0.102-4.594c-0.002-0.02-0.008-0.037-0.01-0.056
		C420.585,251.037,420.774,251.025,420.963,251.02z M429.322,260.069c-2.074,0.069-4.171,0.078-6.246,0.066
		c-1.682-0.01-4.856,0.472-4.301-2.198c0.003-0.014,0.011-0.025,0.014-0.039c0.11,0.17,0.224,0.338,0.326,0.512
		c0.387,0.657,1.398,0.059,1.01-0.602c-0.153-0.26-0.317-0.513-0.486-0.763c0.197-0.076,0.419-0.132,0.657-0.172
		c0.012,0.017,0.018,0.037,0.031,0.053c0.214,0.264,0.401,0.555,0.566,0.853c0.37,0.668,1.381,0.068,1.01-0.602
		c-0.075-0.135-0.161-0.264-0.245-0.394c0.314,0.002,0.631,0.016,0.939,0.034c0.013,0.034,0.028,0.067,0.048,0.101
		c0.189,0.315,0.386,0.624,0.593,0.927c0.18,0.264,0.512,0.385,0.8,0.214c0.256-0.153,0.391-0.55,0.21-0.816
		c-0.074-0.109-0.141-0.222-0.213-0.333c0.155,0.008,0.301,0.014,0.426,0.014c0.286,0,0.588-0.011,0.897-0.024
		c0.003,0.006,0.004,0.011,0.007,0.017c0.164,0.293,0.328,0.585,0.491,0.878c0.373,0.666,1.384,0.066,1.01-0.602
		c-0.062-0.111-0.125-0.223-0.187-0.334c0.228-0.001,0.452,0.006,0.672,0.02c0.007,0.013,0.011,0.025,0.02,0.038
		c0.205,0.318,0.384,0.649,0.538,0.995c0.131,0.293,0.547,0.365,0.8,0.214c0.296-0.176,0.341-0.521,0.21-0.816
		c-0.028-0.063-0.061-0.122-0.091-0.184c0.405,0.133,0.653,0.389,0.836,1.206C429.73,258.62,429.754,260.02,429.322,260.069z
		 M429.258,245.823c0.001-0.462,0.004-0.923,0.003-1.386c0.554,0.052,1.115,0.105,1.669,0.089c0.005,0.437,0.027,0.865,0.066,1.281
		c-0.336-0.029-0.671-0.051-1.009-0.038C429.742,245.78,429.501,245.805,429.258,245.823z M434.322,245.785
		c-0.224,0.961-1.201,1.362-1.841,0.62c-0.709-0.822-0.288-3.741-0.301-4.863c-0.013-1.086-0.506-4.39,0.861-4.352
		c1.47,0.054,1.125,1.496,1.166,2.623c0.031,0.853,0.059,1.705,0.079,2.558C434.31,243.398,434.555,244.787,434.322,245.785z
		 M435.5,245.866c0.02-0.452,0.025-0.908,0.016-1.367c0.272-0.001,0.545-0.002,0.817-0.014c0.298-0.013,0.602-0.075,0.896-0.035
		c0.002,0.465,0.004,0.928,0.006,1.392C436.683,245.932,436.065,245.892,435.5,245.866z M447.732,257.937
		c0.55,2.593-2.388,2.175-4.043,2.194c-2.159,0.025-4.345,0.01-6.504-0.062c-0.415-0.046-0.378-1.251-0.347-1.474
		c0.044-0.314,0.117-0.584,0.23-0.814c0.091,0.135,0.182,0.271,0.273,0.406c0.178,0.265,0.514,0.385,0.8,0.214
		c0.258-0.154,0.389-0.549,0.21-0.816c-0.129-0.193-0.259-0.386-0.388-0.579c0.026-0.01,0.049-0.022,0.076-0.031
		c0.2-0.066,0.427-0.103,0.666-0.127c0.295,0.504,0.613,0.993,0.954,1.467c0.187,0.259,0.507,0.389,0.8,0.214
		c0.251-0.15,0.398-0.555,0.21-0.816c-0.204-0.284-0.398-0.575-0.586-0.871c0.267,0.016,0.53,0.034,0.782,0.05
		c0.243,0.363,0.494,0.721,0.751,1.074c0.188,0.258,0.506,0.389,0.8,0.214c0.249-0.149,0.399-0.556,0.21-0.816
		c-0.112-0.154-0.218-0.312-0.327-0.468c0.232-0.015,0.491-0.033,0.762-0.052c0.005,0.008,0.007,0.016,0.012,0.024
		c0.221,0.342,0.435,0.689,0.642,1.04c0.387,0.657,1.399,0.058,1.01-0.602c-0.105-0.178-0.217-0.352-0.325-0.527
		c0.244-0.005,0.488-0.007,0.728,0c0.197,0.475,0.414,0.934,0.676,1.376c0.389,0.656,1.401,0.057,1.01-0.602
		c-0.119-0.201-0.231-0.407-0.337-0.616C447.134,257.099,447.618,257.4,447.732,257.937z M446.09,251.101
		c-0.131,1.482-0.077,2.961-0.09,4.445c-1.472-0.047-3.164,0.183-4.364,0.187c-0.702,0.002-1.796-0.146-2.851-0.167
		c0.005-1.493-0.065-2.985,0.005-4.477c2.191,0.241,4.622-0.112,6.744-0.069c0.189,0.005,0.378,0.017,0.568,0.024
		C446.098,251.064,446.092,251.081,446.09,251.101z M453.506,250.029c-2.673,0-5.302-0.127-7.973-0.201
		c-1.927-0.039-3.852,0.05-5.779-0.002c-0.472-0.013-2.534,0.047-2.417-0.887c0.102-0.811,2.453-0.72,3.02-0.758
		c3.194-0.214,6.377,0.053,9.57-0.025c1.446-0.036,4.682-0.51,5.888,0.481C457.623,250.123,454.439,250.028,453.506,250.029z
		 M454.585,246.791c-0.022,0.111-0.02,0.213-0.005,0.308c-0.208-0.003-0.402-0.007-0.559-0.023
		c-1.546-0.156-3.031-0.127-4.579-0.102c-2.537,0.042-5.073-0.175-7.613-0.073c-0.74,0.03-1.928-0.088-3.03-0.029
		c-0.012-3.445-0.058-6.924,0.05-10.366c0.247-0.003,0.474-0.005,0.645,0.008c1.686,0.122,3.36,0.257,5.053,0.221
		c2.756-0.058,5.507,0.102,8.265,0.084c0.713-0.005,1.943,0.086,3.152,0.079C455.54,240.202,455.236,243.523,454.585,246.791z
		 M457.593,235.382c-0.792,0.268-2.017,0.147-2.87,0.191c-3.509,0.182-7.03-0.085-10.541-0.024
		c-1.981,0.034-4.181,0.021-6.132-0.329c-1.193-0.214-1.858-1.069-0.462-1.622c0.549-0.217,1.522-0.005,2.096,0
		c3.558,0.03,7.09,0.146,10.647,0.258c2.068,0.052,4.598-0.393,6.621,0.07C457.849,234.131,459.276,234.812,457.593,235.382z"/>
	<path display="inline" fill="#4D4D4D" d="M414.766,243.202c0.463,0.604,1.285-0.245,0.827-0.843
		c-0.691-0.9-1.438-1.749-2.243-2.545c-0.54-0.535-1.368,0.307-0.827,0.843C413.327,241.453,414.075,242.302,414.766,243.202z"/>
	<path display="inline" fill="#4D4D4D" d="M417.253,243.09c0.444,0.609,1.46,0.015,1.01-0.602c-0.727-0.996-1.454-1.992-2.181-2.989
		c-0.444-0.609-1.46-0.015-1.01,0.602C415.799,241.098,416.526,242.094,417.253,243.09z"/>
</g>
<g>
	<path fill="#4D4D4D" d="M555.311,34.863c-32.476-30.88-63.26-39.802-104.954-22.199c-36.895,15.577-65.743,49.591-94.829,76.654
		c-43.78,40.735-85.996,83.217-127.458,126.39c-40.039,41.69-79.375,84.097-117.921,127.226
		c-17.197,19.243-36.592,38.293-51.462,59.651c-0.573,0.625-1.113,1.327-1.569,2.2c-0.614,0.91-0.991,1.809-1.266,2.696
		c-10.234,21.024-14.46,46.725-19.551,69.155c-8.148,35.9-14.916,72.25-18.135,108.981c-0.613,6.989,6.598,10.338,12.164,9.451
		c56.201-8.95,111.693-21.637,167.688-31.716c22.785-4.102,32.708-20.143,48.66-36.967c26.732-28.193,53.324-56.524,79.93-84.841
		c49.456-52.636,98.91-105.284,149.177-157.118c41.436-42.727,100.026-89.082,119.779-147.894
		C610.144,93.119,585.072,63.162,555.311,34.863z M495.881,238.134c-22.972-19.401-40.49-42.003-61.155-64.352
		c-21.738-23.509-45.046-45.43-68.43-67.216c4.269-4.025,8.531-8.056,12.821-12.059c43.343,43.493,86.141,87.532,128.36,132.16
		C503.636,230.528,499.762,234.342,495.881,238.134z M444.316,289.127c-40.68-46.866-88.208-87.119-134.334-128.284
		c3.807-3.753,7.624-7.494,11.446-11.23c49.002,36.639,90.549,84.979,133.28,128.769c-1.64,1.663-3.295,3.327-4.896,4.988
		C447.971,285.278,446.157,287.216,444.316,289.127z M196.155,476.967c-0.024,0.001-0.049-0.012-0.072-0.011
		c-18.287,1.112-36.594,1.136-54.898,1.689c-0.613-14.269-0.538-36.915-5.637-50.104c32.982-32.985,61.412-69.014,92.879-103.385
		c35.496-38.775,73.15-75.641,109.847-113.23c19.068,17.014,37.916,34.291,56.037,52.295
		C329.981,336.801,264.588,408.379,196.155,476.967z M355.67,116.559c3.404,3.171,6.807,6.343,10.203,9.523
		c-6.793,8.031-14.042,15.608-21.665,22.813c-4.031-3.291-8.183-6.404-12.314-9.549C339.776,131.708,347.715,124.124,355.67,116.559
		z M402.664,203.167c7.493-6.09,14.517-12.698,21.182-19.706c0.225,0.242,0.461,0.474,0.686,0.717
		c4.041,4.37,7.908,8.712,11.726,13.033c-6.069,7.251-12.685,13.948-19.842,20.084C411.867,212.553,407.269,207.856,402.664,203.167
		z M392.376,192.854c-3.963-3.939-7.914-7.894-11.942-11.752c6.627-7.29,13.393-14.442,20.306-21.45
		c4.396,4.377,8.727,8.822,13.035,13.29C407.046,180.027,399.95,186.705,392.376,192.854z M369.758,171.217
		c-4.743-4.368-9.547-8.648-14.409-12.851c7.401-7.06,14.471-14.45,21.082-22.296c4.674,4.428,9.332,8.874,13.951,13.36
		C383.364,156.551,376.482,163.806,369.758,171.217z M426.453,227.827c7.02-6.003,13.523-12.545,19.499-19.62
		c4.256,4.836,8.524,9.607,12.854,14.299c-6.403,6.403-12.518,13.081-18.397,19.982C435.769,237.602,431.11,232.724,426.453,227.827
		z M187.487,286.915c35.538-38.224,71.73-75.708,108.623-112.462c10.391,9.276,20.841,18.512,31.287,27.773
		c-36.48,37.345-73.887,74.002-109.162,112.533c-31.449,34.352-59.904,70.406-92.868,103.375c-5.554-1.649-12.76-1.865-16.815-2.612
		c-10.569-1.948-21.187-3.591-31.835-5.015C107.837,365.927,150.874,326.296,187.487,286.915z M114.215,561.284
		c-15.135-19.9-39.395-44.609-62.761-63.836c1.116-5.203,2.202-10.417,3.379-15.6c4.161-18.316,7.458-39.615,14.648-57.735
		c15.308,1.399,39.281,1.721,52.712,8.715c-5.208-1.743-0.094,9.77,0.85,17.333c1.498,12.001,2.863,24.019,4.238,36.034
		c0.439,3.829,2.948,7.517,7.207,7.351c13.579-0.53,27.55,0.35,41.062-0.923c14.709-1.387,14.194-4.41,15.83,10.364
		c1.49,13.449,2.506,26.958,3.443,40.461c-1.66,0.604-3.353,1.139-5.087,1.582C164.974,551.355,139.659,556.593,114.215,561.284z
		 M321.214,418.957c-22.842,24.307-45.667,48.631-68.565,72.885c-13.912,14.735-27.157,33.077-43.883,44.368
		c-1.076-15.558-2.394-31.142-4.668-46.549c69.274-69.295,135.395-141.693,200.452-215.093c9.035,9.291,17.843,18.807,26.348,28.614
		C394.122,341.56,357.622,380.214,321.214,418.957z M465.005,268.097c-4.861-4.978-9.714-9.98-14.551-15.042
		c5.888-6.921,12.015-13.614,18.43-20.033c5.216,5.243,10.694,10.343,16.527,15.28C478.509,254.966,471.661,261.558,465.005,268.097
		z M571.951,143.265c-12.361,25.149-30.742,47.95-50.975,69.445c-42.009-44.405-84.595-88.224-127.716-131.504
		c0.948-0.874,1.867-1.775,2.816-2.648c29.051-26.723,65.319-66.738,109.12-54.382c20.257,5.715,36.83,23.705,50.504,39.119
		C577.901,88.32,588.466,109.662,571.951,143.265z"/>
	<path fill="#4D4D4D" d="M453.631,63.223c-1.703-9.289-15.599-5.355-13.9,3.908c2.444,13.326,5.759,26.389,9.965,39.25
		c2.92,8.931,16.846,5.103,13.899-3.908C459.391,89.611,456.075,76.549,453.631,63.223z"/>
	<path fill="#4D4D4D" d="M478.073,58.15c-2.916-8.933-16.842-5.105-13.9,3.908c3.615,11.075,7.23,22.15,10.846,33.224
		c2.916,8.933,16.842,5.105,13.9-3.909C485.304,80.299,481.688,69.225,478.073,58.15z"/>
</g>
<g display="none">
	<path display="inline" fill="#4D4D4D" d="M179.892,95.243c-5.384,0.478-9.731,4.965-9.461,10.62
		c0.276,5.772,5.033,10.155,10.626,10.216C194.985,116.228,193.511,93.571,179.892,95.243z M181.058,114.341
		c-4.676,0.012-8.639-3.703-8.923-8.478c-0.276-4.645,3.301-8.487,7.757-8.882C191.301,95.58,192.811,114.312,181.058,114.341z"/>
	<path display="inline" fill="#4D4D4D" d="M210.099,106.178c-0.047-1.468,0.463-4.415-0.829-5.521
		c-1.237-1.059-4.168-0.816-6.011-0.842c-0.43-1.47-0.761-3.007-1.333-4.413c-0.226-0.556-1.146-1.675-0.977-2.196
		c0.251-0.775,2.741-1.936,3.292-2.752c0.45-0.666,0.711-1.32,0.507-2.138c-0.347-1.389-2.007-2.46-2.946-3.356
		c-0.946-0.903-2.16-2.604-3.405-3.116c-2.009-0.826-3.984,1.982-5.318,3.538c-1.615-0.962-3.251-1.486-4.938-2.294
		c-1.204-0.576-1.429-0.603-1.68-1.841c-0.204-1.005,0.165-2.153-0.075-3.208c-0.699-3.078-3.853-2.146-6.231-1.951
		c-2.437,0.2-5.174-0.263-5.302,2.834c-0.041,0.989,0.458,2.285,0.116,3.236c-0.294,0.817-0.517,0.609-1.608,1.014
		c-1.689,0.627-3.241,1.378-4.747,2.348c-1.173-1.471-2.523-3.496-4.503-3.398c-2.108,0.104-4.121,2.847-5.45,4.238
		c-2.728,2.857,0.125,4.812,2.199,6.985c-1.458,2.054-2.477,4.253-3.11,6.698c-1.865-0.364-4.484-0.633-5.789,0.689
		c-1.356,1.374-0.721,4.915-0.593,6.593c0.112,1.47,0.051,3.368,1.434,4.165c1.362,0.785,3.622,0.418,5.269,0.182
		c0.389,1.528,0.858,3.027,1.48,4.478c0.146,0.34,0.8,1.274,0.753,1.592c-0.013,0.089-0.39,0.373-0.532,0.626
		c-0.792,1.416-3.59,2.712-2.902,4.8c0.645,1.96,4.647,5.472,6.561,6.227c2.129,0.839,3.912-1.477,5.349-2.991
		c2.015,1.468,4.168,2.37,6.622,2.738c-0.102,1.922-0.826,4.596,0.332,5.98c0.868,1.038,2.923,0.81,4.038,0.838
		c1.497,0.038,3.416,0.258,4.839-0.319c1.027-0.417,1.558-1.021,1.78-2.112c0.23-1.131-0.763-3.179-0.266-4.09
		c0.416-0.762,2.911-1.215,3.826-1.71c1.52-0.823,2.787-2.346,4.378-0.893c1.678,1.533,2.43,4.186,4.839,2.696
		c1.767-1.093,3.734-3.204,4.785-4.978c1.188-2.005,0.323-2.782-1.224-4.2c-1.572-1.441-2.165-1.353-1.237-3.511
		c0.762-1.771,1.298-3.592,1.859-5.432c1.814,0.097,4.48,0.538,5.891-0.382C210.704,110.074,210.145,107.591,210.099,106.178z
		 M207.333,109.62c-1.237,0.398-3.307,0.024-4.603,0.033c-0.285,0.002-0.495,0.123-0.632,0.298c-0.081,0.089-0.147,0.201-0.19,0.34
		c-0.758,2.453-1.856,4.713-2.704,7.081c-0.38,1.061-0.248,1.628,0.412,2.493c0.738,0.968,2.532,1.605,2.978,2.727
		c0.471,1.185-1.84,3.221-2.566,3.958c-0.382,0.388-1.051,1.226-1.581,1.37c-1.04,0.283-1.41-0.471-2.149-1.347
		c-0.75-0.889-1.515-2.293-2.792-2.453c-0.892-0.112-1.866,0.609-2.611,1.031c-1.926,1.093-3.592,1.97-5.795,2.348
		c-0.256,0.044-0.559,0.34-0.595,0.607c-0.15,1.116,0.101,2.136,0.105,3.248c0.011,2.95-2.513,2.926-4.838,2.867
		c-2.069-0.053-2.847-0.05-2.768-2.252c0.043-1.184,0.187-2.4,0.102-3.584c-0.036-0.503-0.363-0.821-0.852-0.869
		c-2.606-0.254-4.895-1.202-6.957-2.86c-0.107-0.086-0.22-0.142-0.334-0.173c-0.273-0.107-0.594-0.084-0.87,0.173
		c-0.748,0.695-2.143,2.609-3.095,2.892c-1.655,0.493-3.154-1.473-4.211-2.499c-0.842-0.818-2.352-1.818-1.923-3.16
		c0.299-0.935,1.667-1.846,2.355-2.512c0.751-0.727,1.028-0.946,0.792-1.984c-0.264-1.164-1.082-2.297-1.489-3.432
		c-0.408-1.138-0.713-2.299-0.991-3.476c-0.079-0.333-0.465-0.681-0.821-0.638c-0.892,0.109-1.787,0.203-2.686,0.235
		c-1.618,0.057-2.482,0.245-2.818-1.588c-0.242-1.321-0.388-2.985-0.221-4.312c0.094-0.751,0.155-1.993,0.885-2.464
		c0.829-0.536,3.456-0.007,4.281,0.181c0.433,0.099,0.942-0.131,1.048-0.607c0.624-2.824,1.767-5.287,3.495-7.578
		c0.238-0.316,0.094-0.787-0.133-1.053c-1.227-1.432-4.032-3.042-2.695-5.073c0.496-0.753,2.069-2.403,2.869-2.785
		c2.527-1.205,3.527,0.604,4.928,2.257c0.187,0.436,0.662,0.727,1.157,0.382c1.872-1.305,3.834-2.057,5.929-2.875
		c0.443-0.173,1.1-0.354,1.429-0.726c0.485-0.549,0.526-1.458,0.558-2.155c0.034-0.733-0.313-1.598-0.151-2.304
		c0.335-1.453,1.791-1.411,3.05-1.515c0.804-0.066,1.778-0.155,2.594-0.213c1.041-0.084,1.539,0.075,2.126,0.39
		c0.732,0.421,0.396,1.233,0.474,2.21c0.128,1.061-0.397,2.109,0.181,3.102c0.428,0.736,0.987,0.885,1.748,1.159
		c2.102,0.756,4.026,1.408,5.925,2.65c0.07,0.046,0.138,0.076,0.206,0.099c0.288,0.151,0.647,0.145,0.944-0.157
		c0.908-0.92,1.96-2.551,3.086-3.127c1.402-0.718,2.177,0.774,3.291,1.837c1.165,1.112,3.255,2.342,2.128,4.15
		c-0.554,0.888-1.886,1.222-2.593,2.01c-0.699,0.779-0.728,1.208-0.402,2.145c0.318,0.913,0.914,1.701,1.23,2.638
		c0.458,1.358,0.784,2.764,1.224,4.129c0.126,0.39,0.429,0.607,0.821,0.638c1.324,0.104,2.955-0.03,4.23,0.331
		c2.026,0.574,1.489,2.526,1.547,4.32C208.443,107.646,208.866,109.127,207.333,109.62z"/>
	<path display="inline" fill="#4D4D4D" d="M176.763,90.918c1.035-0.341,2.071-0.506,3.159-0.496c1.096,0.01,1.097-1.727,0-1.737
		c-1.229-0.011-2.442,0.173-3.611,0.558C175.271,89.585,175.715,91.263,176.763,90.918z"/>
	<path display="inline" fill="#4D4D4D" d="M186.241,91.419c0.895,0.239,1.708,0.652,2.412,1.27c0.827,0.726,2.037-0.498,1.204-1.228
		c-0.926-0.813-1.979-1.4-3.163-1.716C185.632,89.46,185.179,91.135,186.241,91.419z"/>
	<path display="inline" fill="#4D4D4D" d="M196.32,99.411c-0.376-1.082-0.886-2.09-1.569-3.004
		c-0.278-0.371-0.735-0.571-1.165-0.312c-0.358,0.216-0.587,0.812-0.306,1.189c0.592,0.791,1.072,1.65,1.398,2.589
		C195.041,100.92,196.687,100.469,196.32,99.411z"/>
	<path display="inline" fill="#4D4D4D" d="M195.655,106.541c-0.091,1.02-0.266,2.021-0.51,3.014
		c-0.267,1.085,1.375,1.547,1.642,0.462c0.282-1.143,0.467-2.302,0.571-3.476C197.457,105.428,195.753,105.435,195.655,106.541z"/>
	<path display="inline" fill="#4D4D4D" d="M193.36,115.013c-0.368-0.219-0.972-0.116-1.165,0.312
		c-0.4,0.883-1.004,1.574-1.839,2.048c-0.958,0.544-0.1,2.045,0.86,1.5c1.065-0.606,1.938-1.54,2.45-2.671
		C193.858,115.776,193.784,115.266,193.36,115.013z"/>
	<path display="inline" fill="#4D4D4D" d="M184.515,120.369c-0.973,0.18-1.949,0.313-2.935,0.401c-1.084,0.097-1.094,1.835,0,1.737
		c1.136-0.101,2.265-0.256,3.387-0.463C186.044,121.846,185.588,120.171,184.515,120.369z"/>
	<path display="inline" fill="#4D4D4D" d="M175.347,119.785c-1.014-0.287-1.917-0.749-2.764-1.385
		c-0.373-0.28-0.947-0.061-1.165,0.312c-0.257,0.438-0.063,0.912,0.306,1.189c0.955,0.718,2.028,1.236,3.171,1.56
		C175.952,121.76,176.404,120.084,175.347,119.785z"/>
	<path display="inline" fill="#4D4D4D" d="M166.783,111.156c-0.291-1.076-1.935-0.619-1.643,0.462c0.337,1.245,0.915,2.35,1.7,3.359
		c0.288,0.371,0.903,0.301,1.204,0c0.36-0.359,0.284-0.863,0-1.228C167.448,112.98,167.037,112.096,166.783,111.156z"/>
	<path display="inline" fill="#4D4D4D" d="M166.005,104.817c-0.011-1.059,0.057-2.109,0.23-3.153
		c0.181-1.094-1.46-1.564-1.642-0.462c-0.198,1.198-0.303,2.399-0.291,3.615C164.313,105.934,166.017,105.937,166.005,104.817z"/>
	<path display="inline" fill="#4D4D4D" d="M170.432,92.515c-1.032,0.647-1.951,1.454-2.711,2.417c-0.288,0.365-0.35,0.872,0,1.228
		c0.298,0.304,0.915,0.367,1.204,0c0.672-0.852,1.453-1.572,2.366-2.145C172.224,93.43,171.37,91.927,170.432,92.515z"/>
</g>
<g display="none">
	<path display="inline" fill="#4D4D4D" d="M323.653,95.21c-0.926-0.126-1.948,0.11-2.902,0.298
		c-0.986-2.463-2.066-4.883-3.232-7.242c-0.735-1.488-1.597-3.843-3.022-4.827c-1.969-1.36-4.191,0.891-5.427,2.273
		c-5.263,5.882-10.062,12.089-17.112,15.896c-0.066,0.036-0.119,0.077-0.167,0.122c-1.986,0.619-3.967,1.256-5.938,1.923
		c-1.27,0.43-3,0.721-4.048,1.671c-1.8,1.633-0.599,5.189,0.112,7.053c0.67,1.757,2.229,5.3,4.235,5.903
		c0.549,0.165,1.199,0.076,1.85-0.09c1.192,2.523,2.278,5.118,3.654,7.545c0.886,1.563,1.783,3.643,3.854,2.944
		c2.16-0.729,4.88-2.977,4.222-5.578c-0.332-1.314-1.509-2.294-2.241-3.36c-0.81-1.18-1.442-2.458-2.037-3.757
		c0.32-0.103,0.641-0.205,0.96-0.311c4.045-0.804,8.114-1.216,12.225-0.753c3.658,0.412,7.232,1.397,10.825,2.177
		c1.77,0.384,5.143,1.808,6.36-0.379c1.242-2.233-0.397-6.409-0.962-8.628c-0.384-1.507-0.811-3.009-1.268-4.504
		c0.993-0.681,2.223-1.325,2.708-2.464c0.511-1.201,0.002-2.527-0.495-3.636C325.378,96.536,324.773,95.363,323.653,95.21z
		 M284.988,114.932c-0.595-0.844-1.071-1.746-1.469-2.701c-0.398-0.954-0.704-1.93-0.886-2.953
		c-0.389-2.192,0.815-3.155,2.669-3.792c2.24-0.769,4.491-1.498,6.751-2.204c1.14,3.686,2.349,7.348,3.628,10.986
		c-2.004,0.657-4.022,1.266-6.063,1.795C287.719,116.557,286.284,116.769,284.988,114.932z M297.028,121.063
		c0.205,0.274,0.529,0.629,0.695,0.894c0.999,1.599,1.021,2.583-0.3,4.071c-0.352,0.396-1.038,0.841-1.496,1.065
		c-0.45,0.219-0.781,0.336-1.076,0.345c0.213-0.373,0.389-0.766,0.527-1.177c0.24-0.716-0.87-1.023-1.109-0.312
		c-0.116,0.345-0.271,0.668-0.455,0.977c-0.05-0.048-0.097-0.09-0.15-0.145c-0.107-0.112-0.208-0.237-0.308-0.363
		c0.012-0.024,0.024-0.047,0.033-0.074c0.084-0.251,0.241-0.474,0.357-0.71c0.142-0.29,0.262-0.592,0.366-0.898
		c0.242-0.715-0.869-1.022-1.109-0.312c-0.102,0.302-0.248,0.581-0.391,0.862c-0.152-0.274-0.294-0.558-0.432-0.844
		c0.002-0.004,0.006-0.005,0.007-0.009c0.264-0.587,0.527-1.175,0.791-1.762c0.129-0.288,0.08-0.631-0.206-0.802
		c-0.247-0.148-0.657-0.079-0.787,0.21c-0.147,0.328-0.295,0.657-0.442,0.985c-0.104-0.229-0.207-0.452-0.309-0.662
		c-0.053-0.11-0.102-0.221-0.155-0.331c0.043-0.04,0.084-0.086,0.118-0.146c0.256-0.45,0.513-0.9,0.769-1.351
		c0.372-0.654-0.621-1.245-0.993-0.592c-0.16,0.28-0.319,0.561-0.479,0.841c-0.144-0.311-0.294-0.62-0.437-0.932
		c0.042-0.037,0.084-0.075,0.119-0.121c0.23-0.308,0.451-0.621,0.665-0.94c0.175-0.262,0.048-0.65-0.206-0.802
		c-0.284-0.17-0.611-0.052-0.787,0.21c-0.108,0.162-0.225,0.318-0.337,0.476c-0.132-0.287-0.264-0.573-0.398-0.859
		c0.326-0.107,0.636-0.21,0.914-0.282c1.452-0.377,2.891-0.795,4.323-1.24C295.111,117.995,295.93,119.591,297.028,121.063z
		 M318.277,115.234c-3.305-0.745-6.604-1.574-9.979-1.917c-3.862-0.392-7.689-0.013-11.487,0.696
		c-1.312-3.729-2.551-7.483-3.716-11.262c6.335-3.527,11.262-9.038,15.906-14.569c0.537-0.64,1.389-1.867,2.34-2.685
		c2.741,4.186,4.53,9.398,6.325,14.018c2.059,5.299,3.772,11.065,4.758,16.707C321.01,116.116,319.268,115.458,318.277,115.234z
		 M324.636,114.747c-0.053,0.813-0.467,1.221-1.065,1.39c-1.003-5.853-2.785-11.813-4.944-17.307
		c-1.819-4.628-3.575-9.79-6.323-13.969c0.502-0.221,1.012-0.261,1.501,0.026c0.651,0.381,1.209,1.895,1.552,2.533
		c1.593,2.964,2.927,6.084,4.153,9.221c1.464,3.748,2.758,7.574,3.772,11.475C323.793,110.08,324.768,112.703,324.636,114.747z
		 M324.993,101.049c-0.398,0.58-1.12,0.986-1.76,1.388c-0.623-1.955-1.309-3.893-2.05-5.809c0.457-0.077,0.915-0.153,1.376-0.202
		c1.122-0.12,1.551,0.208,2.078,1.266C325.138,98.699,325.718,99.995,324.993,101.049z"/>
	<path display="inline" fill="#4D4D4D" d="M323.959,91.699c0.009-1.114-0.003-2.229,0.006-3.343c0.006-0.755-1.144-0.756-1.15,0
		c-0.009,1.114,0.003,2.229-0.006,3.343C322.803,92.454,323.953,92.454,323.959,91.699z"/>
	<path display="inline" fill="#4D4D4D" d="M328.641,93.956c0.599-0.67,1.198-1.34,1.797-2.01c0.498-0.557-0.313-1.389-0.813-0.829
		c-0.599,0.67-1.198,1.34-1.797,2.01C327.33,93.683,328.141,94.515,328.641,93.956z"/>
	<path display="inline" fill="#4D4D4D" d="M332.582,97.796c-0.853-0.054-1.709-0.049-2.563-0.076c-0.74-0.023-0.739,1.15,0,1.173
		c0.854,0.027,1.71,0.021,2.563,0.076C333.321,99.016,333.318,97.843,332.582,97.796z"/>
	<path display="inline" fill="#4D4D4D" d="M328.254,103.135c-0.601-0.442-1.176,0.575-0.58,1.013
		c0.733,0.539,1.414,1.144,2.081,1.764c0.546,0.507,1.362-0.32,0.813-0.829C329.828,104.395,329.066,103.733,328.254,103.135z"/>
	<path display="inline" fill="#4D4D4D" d="M287.075,108.663c0.682-0.271,0.386-1.405-0.306-1.131
		c-0.771,0.306-1.543,0.612-2.314,0.918c-0.682,0.271-0.386,1.405,0.306,1.131C285.532,109.274,286.303,108.969,287.075,108.663z"/>
	<path display="inline" fill="#4D4D4D" d="M287.391,109.452c-0.791,0.385-1.605,0.698-2.445,0.953
		c-0.708,0.215-0.406,1.347,0.306,1.131c0.934-0.284,1.84-0.644,2.72-1.071C288.64,110.14,288.057,109.129,287.391,109.452z"/>
</g>
</svg>
