<?xml version="1.0" encoding="utf-8"?>
<!-- Generator: Adobe Illustrator 17.0.0, SVG Export Plug-In . SVG Version: 6.00 Build 0)  -->
<!DOCTYPE svg PUBLIC "-//W3C//DTD SVG 1.1//EN" "http://www.w3.org/Graphics/SVG/1.1/DTD/svg11.dtd">
<svg version="1.1" id="Layer_1" xmlns="http://www.w3.org/2000/svg" xmlns:xlink="http://www.w3.org/1999/xlink" x="0px" y="0px"
	 width="512px" height="512px" viewBox="0 0 512 512" enable-background="new 0 0 512 512" xml:space="preserve">
<g>
	<path fill-rule="evenodd" clip-rule="evenodd" fill="#900c3e" d="M328.214,116.191H173.331c-37.883,0-68.594,30.711-68.594,68.594
		v154.883c0,37.883,30.711,68.594,68.594,68.594h154.883c37.883,0,68.594-30.711,68.594-68.594V184.785
		C396.807,146.902,366.097,116.191,328.214,116.191z M250.772,355.118c-51.303,0-92.892-41.589-92.892-92.891
		s41.589-92.891,92.892-92.891c51.302,0,92.891,41.589,92.891,92.891S302.075,355.118,250.772,355.118z M346.761,187.442
		c-11.952,0-21.64-9.689-21.64-21.64s9.689-21.64,21.64-21.64s21.64,9.689,21.64,21.64S358.713,187.442,346.761,187.442z"/>
	<circle fill-rule="evenodd" clip-rule="evenodd" fill="#900c3e" cx="250.772" cy="262.226" r="60.216"/>
	<path fill-rule="evenodd" clip-rule="evenodd" fill="#900c3e" d="M256,0C114.611,0,0,114.611,0,256c0,141.376,114.611,256,256,256
		c141.376,0,256-114.624,256-256C512,114.611,397.376,0,256,0z M429.777,337.007c0,57.07-46.265,103.335-103.335,103.335H175.102
		c-57.07,0-103.335-46.265-103.335-103.335V185.667c0-57.07,46.265-103.335,103.335-103.335h151.341
		c57.07,0,103.335,46.265,103.335,103.335V337.007z"/>
</g>
</svg>
