<?xml version="1.0" encoding="utf-8"?>
<!-- Generator: Adobe Illustrator 17.0.0, SVG Export Plug-In . SVG Version: 6.00 Build 0)  -->
<!DOCTYPE svg PUBLIC "-//W3C//DTD SVG 1.1//EN" "http://www.w3.org/Graphics/SVG/1.1/DTD/svg11.dtd">
<svg version="1.1" id="Layer_1" xmlns="http://www.w3.org/2000/svg" xmlns:xlink="http://www.w3.org/1999/xlink" x="0px" y="0px"
	 width="612px" height="792px" viewBox="0 0 612 792" enable-background="new 0 0 612 792" xml:space="preserve">
<g>
	<path fill="#FFFFFF" d="M11.343,106.385l54.702,616.442L305.54,792l240.874-69.644l54.243-615.736L11.343,106.385z
		 M281.523,642.748l-172.841-47.762l-0.23-72.232l113.772,31.764l0.69-315.985h58.61L281.523,642.748L281.523,642.748z
		 M515.298,307.775l-127.95,0.475v106.345l119.953-13.53l-16.229,199.159l0,0l-162.525,42.728l-1.176-72.163l117.601-31.57
		l1.646-58.869l-116.66,20.177l-2.587-264.438l193.101-0.949L515.298,307.775z"/>
</g>
<g>
	<polygon fill="#FFFFFF" points="256.047,60.922 224.229,60.922 224.229,83.771 256.047,83.771 273.081,83.771 278.846,83.771 
		278.846,15.864 256.047,15.864 	"/>
	<path fill="#FFFFFF" d="M357.5,16.208h-55.497c0,0,0,11.937,0,23.779c7.417,7.426,11.295,10.979,22.036,21.719
		c-6.281,0-22.036,0.022-22.036,0.022v21.693H357.5V61.724l-22.166-21.737H357.5V16.208z"/>
</g>
</svg>
