<?xml version="1.0" encoding="utf-8"?>
<!-- Generator: Adobe Illustrator 17.0.0, SVG Export Plug-In . SVG Version: 6.00 Build 0)  -->
<!DOCTYPE svg PUBLIC "-//W3C//DTD SVG 1.1//EN" "http://www.w3.org/Graphics/SVG/1.1/DTD/svg11.dtd">
<svg version="1.1" id="Layer_1" xmlns="http://www.w3.org/2000/svg" xmlns:xlink="http://www.w3.org/1999/xlink" x="0px" y="0px"
	 width="512px" height="512px" viewBox="0 0 512 512" enable-background="new 0 0 512 512" xml:space="preserve">
<path fill="#FFFFFF" d="M255.343,0C114.319,0,0,114.99,0,256.844c0,141.849,114.319,256.843,255.343,256.843
	c141.019,0,255.344-114.994,255.344-256.843C510.688,114.99,396.362,0,255.343,0z M94.297,274.543h-1.961
	c-10.049,0-18.198-8.154-18.198-18.204c0-10.05,8.149-18.204,18.198-18.204h1.961c10.056,0,18.199,8.154,18.199,18.204
	C112.495,266.389,104.353,274.543,94.297,274.543z M177.319,274.543h-20.976c-10.05,0-18.205-8.154-18.205-18.204
	c0-10.05,8.155-18.204,18.205-18.204h20.976c10.05,0,18.198,8.154,18.198,18.204C195.516,266.389,187.368,274.543,177.319,274.543z
	 M431.849,270.465l-72.018,72.018c-7.338,7.331-19.378,7.093-26.412-0.715c-6.593-7.32-5.567-18.788,1.401-25.751l31.586-31.592
	c3.648-3.648,1.067-9.883-4.095-9.883H244.758c-10.378,0-18.723-8.691-18.174-19.182c0.518-9.847,9.346-17.226,19.206-17.226
	h116.521c5.162,0,7.743-6.235,4.095-9.883l-32.313-32.319c-7.338-7.344-7.099-19.385,0.709-26.406
	c7.326-6.604,18.788-5.567,25.756,1.395l71.291,71.29C439.652,250.008,439.652,262.657,431.849,270.465z"/>
</svg>
