<?xml version="1.0" encoding="utf-8"?>
<!-- Generator: Adobe Illustrator 17.0.0, SVG Export Plug-In . SVG Version: 6.00 Build 0)  -->
<!DOCTYPE svg PUBLIC "-//W3C//DTD SVG 1.1//EN" "http://www.w3.org/Graphics/SVG/1.1/DTD/svg11.dtd">
<svg version="1.1" id="Layer_1" xmlns="http://www.w3.org/2000/svg" xmlns:xlink="http://www.w3.org/1999/xlink" x="0px" y="0px"
	 width="512px" height="512px" viewBox="0 0 512 512" enable-background="new 0 0 512 512" xml:space="preserve">
<path fill-rule="evenodd" clip-rule="evenodd" fill="#571845" d="M254.093,0C113.757,0,0,114.613,0,256
	c0,141.383,113.757,256,254.093,256c140.33,0,254.093-114.617,254.093-256C508.186,114.613,394.423,0,254.093,0z M165.068,401.771
	c-18.536-0.248-37.076-0.19-55.615-0.034c-3.442,0.029-4.602-0.838-4.598-4.482c0.091-62.66,0.075-125.318-0.017-187.976
	c-0.004-3.264,0.786-4.356,4.185-4.324c18.878,0.163,37.756,0.182,56.63-0.013c3.767-0.042,4.353,1.344,4.339,4.696
	c-0.115,31.247-0.065,62.489-0.071,93.733c0,31.072-0.066,62.147,0.079,93.222C170.015,400.452,169.244,401.826,165.068,401.771z
	 M173.053,153.394c-4.454,17.577-22.497,27.695-43.322,24.288c-22.12-3.617-34.451-25.366-26.299-46.385
	c5.088-13.126,18.107-21.073,34.489-21.053C162.79,110.27,178.947,130.117,173.053,153.394z M398.814,401.76
	c-18.373-0.222-36.754-0.22-55.129,0c-4.02,0.045-5.05-1.11-5.029-5.096c0.149-32.954,0.097-65.908,0.064-98.86
	c-0.012-7.49-0.522-14.932-2.613-22.184c-6.699-23.263-32.967-31.43-51.673-15.96c-10.107,8.354-14.058,19.401-13.982,32.404
	c0.164,31.086,0.049,62.171,0.049,93.257c0,4.078-0.226,8.169,0.068,12.223c0.258,3.523-1.171,4.202-4.34,4.181
	c-18.715-0.127-37.428-0.14-56.141,0.008c-3.396,0.027-4.615-0.669-4.577-4.429c0.274-28.02,0.386-56.053,0.397-84.075
	c0.005-34.484-0.063-68.965-0.302-103.447c-0.025-3.775,0.759-4.892,4.63-4.848c18.715,0.212,37.429,0.18,56.142,0.021
	c3.37-0.032,4.31,0.991,4.202,4.293c-0.232,7.105-0.07,14.223-0.07,22.624c1.253-1.357,1.741-1.772,2.091-2.286
	c17.077-25.105,41.468-32.486,69.927-28.079c32.887,5.099,53.933,28.293,59.306,63.783c1.275,8.415,1.908,16.864,1.902,25.372
	c-0.02,35.335-0.075,70.668,0.075,106.001C403.834,400.642,402.862,401.81,398.814,401.76z"/>
</svg>
