<?xml version="1.0" encoding="utf-8"?>
<!-- Generator: Adobe Illustrator 17.0.0, SVG Export Plug-In . SVG Version: 6.00 Build 0)  -->
<!DOCTYPE svg PUBLIC "-//W3C//DTD SVG 1.1//EN" "http://www.w3.org/Graphics/SVG/1.1/DTD/svg11.dtd">
<svg version="1.1" id="Layer_1" xmlns="http://www.w3.org/2000/svg" xmlns:xlink="http://www.w3.org/1999/xlink" x="0px" y="0px"
	 width="1000px" height="1000px" viewBox="0 0 1000 1000" enable-background="new 0 0 1000 1000" xml:space="preserve">
<g>
	<path fill-rule="evenodd" clip-rule="evenodd" fill="#DF88A8" d="M490.302,467.93l86.532,219.6h-82.988l-57.502-150.985H299.217
		C363.657,509.441,428.067,486.817,490.302,467.93z"/>
	<path fill-rule="evenodd" clip-rule="evenodd" fill="#DF88A8" d="M219.441,572.493L174.616,687.53H94.319l24.351-61.785
		C151.806,606.603,185.502,588.869,219.441,572.493z"/>
	<path fill-rule="evenodd" clip-rule="evenodd" fill="#DF88A8" d="M843.102,509.188c0,36.59-1.713,63.585-5.268,80.723
		c-3.429,17.266-9.195,32.342-17.4,45.1c-12.873,20.186-30.034,35.741-51.371,46.562c-21.329,10.818-45.606,16.165-72.943,16.165
		c-40.943,0-73.432-11.422-97.583-34.398c-24.024-22.982-36.408-53.977-37.147-93.243l75.029-0.371
		c2.571,19.336,8.946,33.803,19.124,43.532c10.178,9.597,24.159,14.458,42.051,14.458c26.238,0,44.381-7.772,54.551-23.338
		c10.178-15.562,15.205-50.695,15.205-105.152v-96.914c27.095-4.737,52.462-8.709,75.753-12.033V509.188z"/>
	<path fill-rule="evenodd" clip-rule="evenodd" fill="#FFFFFF" d="M632.468,297.385c45.969,0,91.03,3.331,134.88,9.715V168.927
		h75.753v152.492c54.909,12.821,107.466,30.517,157.013,52.518c-50.763-6.406-103.201-10.371-157.013-11.73l-1.168-0.031
		l-0.466-0.007l-0.702-0.017l-1.168-0.031l-1.177-0.024l-1.177-0.031l-1.168-0.022h-0.048l-1.122-0.024l-1.177-0.024l-1.17-0.022
		l-1.176-0.023l-2.353-0.038l-1.169-0.024l-1.177-0.008l-1.176-0.024l-1.185-0.016l-1.177-0.022l-1.177-0.008l-1.176-0.022
		l-1.145-0.009h-0.032l-1.183-0.007l-1.177-0.015l-1.177-0.008l-1.184-0.015l-0.725-0.008h-0.451l-1.185-0.009l-1.177-0.007
		l-1.185-0.008l-2.37-0.008l-1.183-0.008l-1.176-0.008h-1.185h-1.075h-0.11h-1.183h-1.194h-1.183h-1.183h-0.648h-0.537l-1.185,0.008
		l-1.193,0.008h-1.183h-0.164l-2.214,0.015l-1.191,0.007l-1.193,0.009l-1.185,0.008l-2.376,0.023l-1.193,0.008l-1.193,0.015
		l-2.384,0.024l-1.193,0.016l-1.193,0.015l-1.191,0.024l-1.201,0.015h-0.14l-1.045,0.016l-1.199,0.024l-1.2,0.015l-1.193,0.024
		l-1.194,0.023l-1.199,0.022l-1.191,0.024c-37.999,0.764-76.582,2.798-115.641,6.19c-68.017,5.888-134.577,15.595-199.134,28.716
		l-1.214,0.255l-1.139,0.232h-0.015l-6.797,1.407l-1.136,0.24l-0.204,0.038l-2.058,0.433l-1.137,0.246l-1.129,0.24l-4.529,0.966
		l-1.129,0.239l-1.13,0.248l-2.259,0.487l-1.123,0.248l-5.633,1.243l-1.131,0.247h-0.008l-2.243,0.51l-1.122,0.247l-5.62,1.276
		l-1.114,0.255l-4.231,0.974l-0.258,0.062l-1.123,0.262l-1.114,0.262l-2.245,0.526l-1.122,0.255l-1.106,0.271l-3.623,0.858
		l-5.306,1.275l-1.116,0.27c-41.716,10.123-82.505,21.676-122.163,34.566l-1.449,0.471l-4.327,1.415l-1.433,0.479l-1.441,0.471
		l-1.433,0.481l-1.433,0.478l-4.31,1.437l-1.427,0.481l-1.433,0.486l-1.433,0.479l-1.427,0.487l-0.116,0.038l-4.169,1.431
		l-1.427,0.487l-2.844,0.988l-1.427,0.495l-0.054,0.016l-2.78,0.965l-1.42,0.503l-1.419,0.495l-1.416,0.502l-1.418,0.503
		l-1.412,0.503l-0.022,0.007l-2.807,0.998l-1.41,0.502l-1.41,0.51l-2.822,1.012l-1.409,0.511l-4.115,1.498l-0.102,0.038
		l-1.403,0.511l-4.738,1.746l-2.268,0.843l-1.395,0.517l-5.937,2.233l-2.432,0.92l-1.387,0.525l-1.387,0.533l-4.364,1.669
		l-2.572,0.99l-1.37,0.54C119.03,500.403,58.967,528.516,3,559.558c56.848-61.823,125.778-115.067,203.722-157.114l92.073-233.518
		h73.684l59.211,150.258C495.857,304.966,563.127,297.385,632.468,297.385L632.468,297.385z M300.192,359.161
		c20.174-7.904,40.787-15.107,61.821-21.583l-26.559-71.032L300.192,359.161z"/>
</g>
</svg>
