<svg width="300" height="300" viewBox="0 0 300 300" fill="none" xmlns="http://www.w3.org/2000/svg">
<path d="M149.996 0C67.157 0 0.00100708 67.158 0.00100708 149.997C0.00100708 232.834 67.157 299.997 149.996 299.997C232.835 299.997 299.996 232.834 299.996 149.997C299.996 67.158 232.835 0 149.996 0ZM149.999 52.686L238.762 108.036H61.236L149.999 52.686ZM239.868 196.423H239.859C239.859 205.301 232.664 212.495 223.787 212.495H76.211C67.333 212.495 60.139 205.3 60.139 196.423V111.558C60.139 110.619 60.235 109.706 60.391 108.809L145.199 161.692C145.303 161.757 145.414 161.801 145.521 161.861C145.633 161.923 145.747 161.983 145.861 162.04C146.46 162.349 147.077 162.598 147.708 162.761C147.773 162.779 147.838 162.787 147.903 162.802C148.595 162.965 149.296 163.067 149.996 163.067H150.001C150.006 163.067 150.011 163.067 150.011 163.067C150.711 163.067 151.412 162.968 152.104 162.802C152.169 162.786 152.234 162.779 152.299 162.761C152.929 162.598 153.544 162.349 154.146 162.04C154.26 161.983 154.374 161.923 154.486 161.861C154.592 161.801 154.704 161.757 154.808 161.692L239.616 108.809C239.772 109.706 239.868 110.617 239.868 111.558V196.423Z" fill="white"/>
</svg>
