<?xml version="1.0" encoding="utf-8"?>
<!-- Generator: Adobe Illustrator 17.0.0, SVG Export Plug-In . SVG Version: 6.00 Build 0)  -->
<!DOCTYPE svg PUBLIC "-//W3C//DTD SVG 1.1//EN" "http://www.w3.org/Graphics/SVG/1.1/DTD/svg11.dtd">
<svg version="1.1" id="Layer_1" xmlns="http://www.w3.org/2000/svg" xmlns:xlink="http://www.w3.org/1999/xlink" x="0px" y="0px"
	 width="612px" height="792px" viewBox="0 0 612 792" enable-background="new 0 0 612 792" xml:space="preserve">
<path fill="#FFFFFF" d="M304.151,4.747l21.028,39.495c4.728,7.288,9.849,13.74,15.882,19.748
	c17.686,17.466,34.172,36.107,49.344,55.795c35.629,46.784,59.661,98.738,76.823,154.927c10.292,34.324,15.882,69.535,16.3,105.14
	c1.724,106.445-34.768,197.845-108.341,273.807c-11.967,12.046-24.896,23.097-38.658,33.044c-7.288,0-10.736-5.589-13.74-10.736
	c-5.471-9.543-9.111-20.023-10.736-30.902c-2.585-12.878-4.284-25.756-3.447-39.052v-6.008
	C308.017,598.725,301.59,7.775,304.151,4.747L304.151,4.747z"/>
<path fill="#FFFFFF" d="M304.151,3.442c-0.862-1.724-1.724-0.419-2.585,0.419c0.419,8.618-2.585,16.3-7.288,23.638
	c-5.171,7.288-12.016,12.878-18.886,18.886c-38.165,33.044-68.205,72.958-92.262,117.599
	c-32.01,60.08-48.507,124.469-53.185,192.256c-2.142,24.451,7.732,110.729,15.439,135.623
	c21.028,66.088,58.799,121.465,107.725,169.529c12.016,11.573,24.869,22.308,38.166,32.625c3.866,0,4.284-3.447,5.171-6.008
	c1.695-5.48,2.987-11.076,3.866-16.744l8.618-64.364L304.151,3.442z"/>
<path fill="#FFFFFF" d="M325.179,712.852c0.862-9.849,5.589-18.024,10.736-26.174c-5.171-2.142-9.012-6.402-12.016-11.154
	c-2.59-4.499-4.734-9.241-6.402-14.158c-6.008-18.024-7.288-36.934-9.012-55.352v-11.154c-2.142,1.724-2.585,16.3-2.585,18.467
	c-1.253,19.466-3.836,38.824-7.732,57.938c-1.28,7.732-2.142,15.439-6.894,22.308c0,0.862,0,1.724,0.419,3.004
	c7.732,22.752,9.849,45.922,11.154,69.535v8.618c0,10.292-0.419,8.126,8.126,11.573c3.447,1.28,7.288,1.724,10.736,4.284
	c2.585,0,3.004-2.142,3.004-3.866l-1.28-14.158v-39.495c-0.419-6.894,0.862-13.74,1.724-20.191L325.179,712.852z"/>
</svg>
