<?xml version="1.0" encoding="utf-8"?>
<!-- Generator: Adobe Illustrator 17.0.0, SVG Export Plug-In . SVG Version: 6.00 Build 0)  -->
<!DOCTYPE svg PUBLIC "-//W3C//DTD SVG 1.1//EN" "http://www.w3.org/Graphics/SVG/1.1/DTD/svg11.dtd">
<svg version="1.1" id="Layer_1" xmlns="http://www.w3.org/2000/svg" xmlns:xlink="http://www.w3.org/1999/xlink" x="0px" y="0px"
	 width="612px" height="612px" viewBox="0 0 612 612" enable-background="new 0 0 612 612" xml:space="preserve">
<path fill="#FFFFFF" d="M291.707,317.573v-79.568l-68.901-39.757l-68.901,39.757v79.568l68.901,39.784L291.707,317.573z"/>
<path fill="#FFFFFF" d="M563.039,305.49l44.9,25.933l-44.9,25.933l-68.901-39.784v-79.541l68.901-39.784l41.743,24.11
	c4.245,17.906,6.83,36.165,7.783,54.56l-25.525,14.749v-27.702l-24.001-13.851l-24.001,13.851v27.702L563.039,305.49z"/>
<path fill="#FFFFFF" d="M576.427,285.517V270.06l-13.361-7.728l-13.388,7.728v15.456l13.388,7.728L576.427,285.517z"/>
<path fill="#FFFFFF" d="M121.359,238.032v104.903l-45.961-26.205v-53.798l-22.94-13.252l-22.94,13.252v53.771L3.422,331.587
	C1.816,318.797,1,305.899,1,293c0-23.947,2.748-47.267,7.946-69.636l43.512-25.117L121.359,238.032z"/>
<path fill="#FFFFFF" d="M222.779,198.22l68.901,119.325l-68.901,39.784l-68.874-119.325L222.779,198.22z"/>
<path fill="#FFFFFF" d="M153.905,317.573l23.647-38.587l-23.647-40.981V317.573z"/>
<path fill="#FFFFFF" d="M268.713,277.788l22.967-39.784l-68.874-39.757L268.713,277.788z"/>
<path fill="#FFFFFF" d="M415.25,106.026v105.556l-23.103-13.334l-68.901,39.784V317.6l68.901,39.784l68.901-39.784V130.544
	L415.25,106.026z M415.114,291.041l-22.967,13.252l-22.967-13.252v-26.505l22.967-13.252l22.967,13.252V291.041z"/>
<g>
	<path fill="#FFFFFF" d="M338.267,415.781c0,0-1.361-11.62-13.797-11.62s-20.953,1.633-20.953,8.517s24.192,6.885,33.389,9.606
		c9.198,2.694,17.307,9.742,13.252,22.178s-16.491,13.797-35.702,13.797c-19.212,0-23.538-15.946-23.538-22.178h10.83
		c0,0-1.361,9.742,11.347,11.347s24.872,2.531,26.505-7.293c2.177-12.98-41.117-6.504-44.9-19.212
		c-3.211-10.749-1.361-24.872,20.273-27.049c21.634-2.177,33.525,7.402,33.525,21.634L338.267,415.781z"/>
	<path fill="#FFFFFF" d="M233.745,466.477l23.919,13.797c12.028,6.939,27.049-1.742,27.049-15.62v-68.738h-9.742v66.017
		c0,7.565-8.191,12.327-14.776,8.517l-16.681-9.633v-70.452l61.01-35.212l61.01,35.212v70.452l-61.01,35.212l-17.579-10.15
		l-11.483,4.626l29.063,16.763l70.751-40.845v-81.691l-70.751-40.845l-70.751,40.845L233.745,466.477z"/>
</g>
</svg>
