<?xml version="1.0" encoding="utf-8"?>
<!-- Generator: Adobe Illustrator 17.0.0, SVG Export Plug-In . SVG Version: 6.00 Build 0)  -->
<!DOCTYPE svg PUBLIC "-//W3C//DTD SVG 1.1//EN" "http://www.w3.org/Graphics/SVG/1.1/DTD/svg11.dtd">
<svg version="1.1" id="Layer_1" xmlns="http://www.w3.org/2000/svg" xmlns:xlink="http://www.w3.org/1999/xlink" x="0px" y="0px"
	 width="612px" height="792px" viewBox="0 0 612 792" enable-background="new 0 0 612 792" xml:space="preserve">
<g>
	<path fill="#FFFFFF" d="M504.394,300.271c-6.348-2.185-12.926-4.253-19.699-6.208c1.113-4.543,2.135-9.028,3.043-13.436
		c14.912-72.386,5.162-130.7-28.132-149.899c-31.924-18.41-84.134,0.785-136.864,46.674c-5.071,4.413-10.155,9.085-15.238,13.981
		c-3.387-3.239-6.768-6.37-10.14-9.364c-55.262-49.067-110.654-69.745-143.915-50.49c-31.894,18.463-41.339,73.284-27.916,141.885
		c1.296,6.626,2.811,13.393,4.525,20.273c-7.84,2.225-15.408,4.598-22.649,7.122C42.62,323.395,1.243,358.797,1.243,395.517
		c0,37.925,44.418,75.965,111.901,99.03c5.326,1.82,10.851,3.541,16.546,5.175c-1.849,7.441-3.456,14.732-4.806,21.844
		c-12.799,67.41-2.804,120.936,29.005,139.282c32.856,18.947,87.997-0.528,141.691-47.463c4.244-3.71,8.503-7.645,12.77-11.769
		c5.53,5.326,11.052,10.366,16.544,15.093c52.009,44.755,103.375,62.827,135.155,44.429c32.823-19.001,43.49-76.501,29.641-146.458
		c-1.058-5.343-2.289-10.801-3.671-16.357c3.872-1.145,7.674-2.327,11.381-3.555c70.155-23.244,115.8-60.821,115.8-99.252
		C613.199,358.664,570.488,323.024,504.394,300.271z M339.905,197.122c45.179-39.317,87.405-54.841,106.643-43.746
		c20.493,11.818,28.462,59.478,15.586,121.975c-0.821,3.988-1.746,8.05-2.75,12.166c-25.389-5.858-52.958-10.217-81.823-12.925
		c-16.815-23.946-34.24-45.715-51.731-64.561C330.533,205.506,335.229,201.193,339.905,197.122z M195.795,396.145
		c7.904-16.458,16.606-32.989,26.031-49.333l-0.002,0.003c9.451-16.388,19.397-32.191,29.673-47.239
		c18.2-1.376,36.862-2.094,55.723-2.094h0.001c18.946,0,37.632,0.723,55.827,2.111c10.119,14.937,19.998,30.689,29.486,47.08
		c9.595,16.574,18.41,32.995,26.381,49.1c-7.947,16.382-16.742,32.968-26.295,49.535c-9.566,16.586-19.387,32.42-29.357,47.366
		c-18.159,1.298-36.92,1.967-56.041,1.967c-19.044,0-37.568-0.591-55.406-1.749c-10.372-15.142-20.406-31.022-29.911-47.441h0.002
		C212.426,429.077,203.701,412.564,195.795,396.145z M181.932,426.884c5.478,10.58,11.263,21.153,17.349,31.664h0.001
		c6.199,10.709,12.622,21.198,19.214,31.428c-20.045-2.236-38.944-5.267-56.399-9.066
		C167.501,463.461,174.158,445.328,181.932,426.884z M181.902,365.399c-7.613-18.055-14.126-35.809-19.446-52.952
		c17.46-3.907,36.079-7.102,55.48-9.524c-6.427,10.025-12.694,20.312-18.76,30.829v0.002
		C193.128,344.243,187.366,354.811,181.902,365.399z M415.264,458.368c6.234-10.81,12.153-21.636,17.75-32.424
		c8.179,18.643,15.074,36.681,20.549,53.833c-17.743,4.048-36.9,7.308-57.085,9.731C402.831,479.44,409.102,469.053,415.264,458.368
		z M432.764,365.419c-5.551-10.539-11.422-21.165-17.605-31.845c-6.055-10.459-12.272-20.671-18.609-30.604
		c19.525,2.468,38.233,5.745,55.8,9.754C447.076,329.627,440.503,347.301,432.764,365.419z M307.513,228.725
		c12.058,13.064,24.134,27.649,36.012,43.474c-11.969-0.565-24.086-0.859-36.303-0.859c-12.102,0-24.129,0.288-36.024,0.843
		C283.086,256.505,295.266,241.939,307.513,228.725z M166.547,154.154c20.473-11.852,65.744,5.046,113.459,47.414
		c3.05,2.708,6.112,5.542,9.183,8.475c-17.78,19.092-35.349,40.827-52.132,64.512c-28.781,2.668-56.331,6.953-81.661,12.691
		c-1.593-6.406-3.003-12.7-4.207-18.853C139.689,209.617,147.327,165.28,166.547,154.154z M136.704,474.54
		c-5.207-1.497-10.251-3.072-15.105-4.73c-29.84-10.199-54.482-23.454-71.374-37.919c-15.178-12.998-22.841-25.903-22.841-36.374
		c0-22.283,33.222-50.706,88.63-70.024c6.723-2.344,13.761-4.553,21.064-6.628c7.658,24.91,17.703,50.953,29.825,77.288
		C154.625,422.88,144.437,449.338,136.704,474.54z M278.377,593.702c-23.743,20.754-47.536,35.479-68.505,42.885
		c-18.842,6.654-33.849,6.845-42.921,1.614c-19.303-11.133-27.328-54.11-16.382-111.758c1.254-6.602,2.746-13.384,4.466-20.316
		c25.069,5.543,52.814,9.532,82.468,11.936c16.933,23.826,34.664,45.726,52.532,64.901
		C286.133,586.733,282.244,590.321,278.377,593.702z M308.236,564.152c-12.39-13.369-24.749-28.157-36.82-44.063
		c11.717,0.46,23.663,0.695,35.804,0.695c12.473,0,24.804-0.281,36.941-0.821C332.245,536.156,320.213,550.967,308.236,564.152z
		 M466.986,600.525c-3.645,19.646-10.974,32.745-20.037,37.99c-19.286,11.163-60.528-3.347-105.006-41.622
		c-5.099-4.388-10.235-9.073-15.387-14.031c17.243-18.859,34.477-40.782,51.296-65.131c29.584-2.625,57.533-6.917,82.88-12.776
		c1.248,5.036,2.357,9.974,3.312,14.803C470.168,550.693,471.043,578.661,466.986,600.525z M489.178,469.955
		c-3.346,1.108-6.78,2.178-10.278,3.217c-7.745-24.518-18.198-50.59-30.989-77.527c12.207-26.295,22.255-52.034,29.783-76.393
		c6.26,1.812,12.336,3.722,18.191,5.738c56.629,19.495,91.172,48.318,91.172,70.527
		C587.057,419.174,549.751,449.884,489.178,469.955z"/>
	<path fill="#FFFFFF" d="M307.221,340.872c30.179,0,54.646,24.465,54.646,54.646c0,30.179-24.466,54.646-54.646,54.646
		c-30.179,0-54.646-24.466-54.646-54.646C252.576,365.337,277.042,340.872,307.221,340.872"/>
</g>
</svg>
