<svg width="63" height="63" viewBox="0 0 63 63" fill="none" xmlns="http://www.w3.org/2000/svg">
<path d="M40.1869 40.3117C41.8198 40.1747 43.0799 38.7615 42.9997 37.0742C42.9111 35.387 41.5047 34.0333 39.7988 34.0333H39.6806C37.9156 34.09 36.5317 35.5544 36.5907 37.2984C36.6484 38.1857 37.0141 38.8985 37.5204 39.4245C35.55 43.1879 32.605 45.9506 28.1298 48.2774C25.1271 49.8207 21.9542 50.4048 18.8643 49.9868C16.278 49.6338 14.257 48.496 13.0193 46.6704C11.1643 43.9021 10.9955 40.9249 12.5425 37.9338C13.6691 35.7787 15.3554 34.198 16.4749 33.427C16.1978 32.7073 15.8603 31.4962 15.6915 30.5799C7.37117 36.4417 8.22064 44.4655 10.748 48.2511C12.6311 51.0193 16.4749 52.7855 20.6871 52.7855C21.8164 52.7855 22.995 52.7066 24.1454 52.4242C31.4573 51.0401 36.9873 46.7285 40.1574 40.3712L40.1869 40.3117ZM50.2146 33.3994C45.8646 28.3667 39.4542 25.5984 32.1521 25.5984H31.1915C30.7232 24.5811 29.6234 23.9416 28.3857 23.9416H28.3056C26.5335 23.9416 25.1552 25.4406 25.2129 27.1791C25.2734 28.8359 26.6995 30.22 28.4139 30.22H28.5545C29.8203 30.1633 30.9131 29.3909 31.3673 28.2808H32.4067C36.737 28.2808 40.8325 29.5279 44.5749 31.9585C47.4313 33.8091 49.4903 36.2479 50.6394 39.1518C51.6506 41.5228 51.5915 43.8523 50.5508 45.7915C48.9545 48.8255 46.2514 50.4324 42.6917 50.4324C40.4429 50.4324 38.2531 49.7404 37.1238 49.2435C36.4501 49.7916 35.3222 50.7065 34.5078 51.2629C36.9845 52.3647 39.4823 53 41.8999 53C47.3793 53 51.4523 49.9646 52.9979 47.0316C54.6814 43.7153 54.5435 38.1275 50.2427 33.3412L50.2146 33.3994ZM21.1638 41.3069C21.2243 42.9637 22.6504 44.3478 24.3718 44.3478H24.483C26.2846 44.2911 27.6544 42.8267 27.5728 41.0827C27.5728 39.4231 26.1158 38.039 24.4014 38.039H24.2832C24.175 38.039 24.0062 38.039 23.8599 38.0985C21.5309 34.2271 20.5478 30.0747 20.9135 25.597C21.1343 22.2239 22.2622 19.2965 24.2832 16.8604C25.9695 14.7911 29.1396 13.76 31.3083 13.7101C37.3741 13.5939 39.9085 21.0405 40.0997 23.997L42.9125 24.8261C42.26 15.7573 36.5331 11 31.0537 11C25.9119 11 21.1638 14.6762 19.2525 20.0688C16.6436 27.2649 18.358 34.1703 21.559 39.7068C21.282 40.0598 21.1132 40.702 21.1638 41.3069V41.3069Z" fill="white"/>
</svg>
