<?xml version="1.0" encoding="utf-8"?>
<!-- Generator: Adobe Illustrator 17.0.0, SVG Export Plug-In . SVG Version: 6.00 Build 0)  -->
<!DOCTYPE svg PUBLIC "-//W3C//DTD SVG 1.1//EN" "http://www.w3.org/Graphics/SVG/1.1/DTD/svg11.dtd">
<svg version="1.1" id="Layer_1" xmlns="http://www.w3.org/2000/svg" xmlns:xlink="http://www.w3.org/1999/xlink" x="0px" y="0px"
	 width="512px" height="512px" viewBox="0 0 512 512" enable-background="new 0 0 512 512" xml:space="preserve">
<path fill="#FFFFFF" d="M255.343,0C114.319,0,0,114.99,0,256.844c0,141.849,114.319,256.843,255.343,256.843
	c141.019,0,255.344-114.994,255.344-256.843C510.688,114.99,396.362,0,255.343,0z M417.676,239.599l1.961,0.015
	c10.049,0.077,18.135,8.293,18.058,18.343c-0.077,10.05-8.288,18.141-18.337,18.064l-1.961-0.015
	c-10.056-0.077-18.136-8.293-18.059-18.343C399.416,247.613,407.62,239.522,417.676,239.599z M334.656,238.963l20.975,0.161
	c10.05,0.077,18.142,8.293,18.065,18.343c-0.077,10.05-8.294,18.141-18.344,18.064l-20.975-0.161
	c-10.05-0.077-18.135-8.293-18.058-18.343C316.398,246.978,324.608,238.886,334.656,238.963z M80.103,241.092l72.567-71.464
	c7.394-7.275,19.432-6.944,26.406,0.917c6.537,7.37,5.423,18.83-1.598,25.74l-31.827,31.349c-3.676,3.62-1.143,9.875,4.019,9.914
	l117.55,0.9c10.378,0.079,18.656,8.834,18.027,19.321c-0.593,9.843-9.478,17.154-19.337,17.078l-116.518-0.892
	c-5.162-0.04-7.791,6.176-4.171,9.851l32.065,32.565c7.282,7.4,6.95,19.439-0.911,26.4c-7.376,6.548-18.83,5.423-25.745-1.592
	l-70.743-71.834C72.143,261.489,72.24,248.84,80.103,241.092z"/>
</svg>
