<svg width="44" height="44" viewBox="0 0 44 44" fill="none" xmlns="http://www.w3.org/2000/svg">
<path d="M11.7728 20.977C15.0563 22.1312 18.5203 22.6867 22 22.6174C25.4799 22.6863 28.9438 22.1302 32.2273 20.9757C34.7903 19.976 35.6992 18.865 35.6992 18.2257V13.3375C34.8031 13.9376 33.8418 14.4339 32.8337 14.817C29.3596 16.061 25.6896 16.6675 22 16.6073C18.3108 16.6663 14.6411 16.0608 11.1664 14.8198C10.1578 14.4367 9.19637 13.9393 8.3009 13.3375V18.2188C8.3009 18.8705 9.21253 19.976 11.7728 20.977Z" fill="white"/>
<path d="M11.7728 30.1964C12.9327 30.6388 14.1289 30.9797 15.3478 31.2153C17.5396 31.6393 19.7676 31.8479 22 31.8382C24.2324 31.8484 26.4604 31.6402 28.6523 31.2167C29.8712 30.981 31.0673 30.6401 32.2273 30.1978C34.7903 29.1982 35.6992 28.0872 35.6992 27.4478V22.7865C34.9585 23.2322 34.18 23.6118 33.3727 23.9209C29.7231 25.2131 25.8709 25.8386 22 25.7675C18.1287 25.8364 14.2765 25.2085 10.6274 23.914C9.82045 23.6042 9.04201 23.2246 8.3009 22.7797V27.445C8.3009 28.0858 9.21253 29.1927 11.7728 30.1964Z" fill="white"/>
<path d="M22 41.25C29.5625 41.25 35.6992 38.852 35.6992 35.8958V31.9949C35.0253 32.401 34.3194 32.7515 33.5885 33.0426L33.3727 33.1292C29.7238 34.4252 25.8716 35.0545 22 34.9869C18.1283 35.0564 14.2758 34.4271 10.6274 33.1292C10.5532 33.1017 10.4817 33.0701 10.4115 33.0426C9.68061 32.7515 8.97472 32.401 8.3009 31.9949V35.8958C8.3009 38.852 14.4375 41.25 22 41.25Z" fill="white"/>
<path d="M22 13.4585C29.5658 13.4585 35.6992 11.0613 35.6992 8.10425C35.6992 5.14718 29.5658 2.75 22 2.75C14.4342 2.75 8.3009 5.14718 8.3009 8.10425C8.3009 11.0613 14.4342 13.4585 22 13.4585Z" fill="white"/>
</svg>
