<svg width="15" height="9" viewBox="0 0 15 9" fill="none" xmlns="http://www.w3.org/2000/svg">
<path d="M4.80469 0.734375H7.85156V1.67188H6.91406V5.53906C6.91406 5.80469 6.88574 6.05957 6.8291 6.30371C6.77246 6.54785 6.67969 6.78125 6.55078 7.00391C6.42383 7.22461 6.2666 7.41699 6.0791 7.58105C5.89355 7.74512 5.66113 7.87598 5.38184 7.97363C5.10254 8.06934 4.79297 8.11719 4.45312 8.11719C3.71484 8.11719 3.11133 8.0127 2.64258 7.80371C2.17383 7.59277 1.83105 7.28223 1.61426 6.87207C1.39746 6.45996 1.28906 5.9375 1.28906 5.30469V1.67188H0.351562V0.734375H4.10156V1.67188H3.16406V5.30469C3.16406 5.51758 3.17969 5.71387 3.21094 5.89355C3.24414 6.07324 3.28711 6.22656 3.33984 6.35352C3.39258 6.47852 3.45703 6.59082 3.5332 6.69043C3.60938 6.78809 3.68848 6.86719 3.77051 6.92773C3.85254 6.98828 3.94043 7.03809 4.03418 7.07715C4.12988 7.11621 4.2207 7.14355 4.30664 7.15918C4.39258 7.17285 4.48047 7.17969 4.57031 7.17969C4.79883 7.17969 5.00293 7.13867 5.18262 7.05664C5.36426 6.97266 5.51172 6.85742 5.625 6.71094C5.74023 6.5625 5.82715 6.38965 5.88574 6.19238C5.94629 5.99316 5.97656 5.77539 5.97656 5.53906V1.67188H4.80469V0.734375ZM10.9125 2.375C10.9125 2.56055 10.9555 2.72754 11.0414 2.87598C11.1273 3.02246 11.2426 3.14551 11.3871 3.24512C11.5316 3.34473 11.6977 3.43652 11.8852 3.52051C12.0727 3.60449 12.2699 3.68457 12.477 3.76074C12.684 3.83496 12.891 3.91309 13.098 3.99512C13.3051 4.0752 13.5023 4.17188 13.6898 4.28516C13.8773 4.39648 14.0434 4.52246 14.1879 4.66309C14.3324 4.80176 14.4477 4.97656 14.5336 5.1875C14.6195 5.39648 14.6625 5.63086 14.6625 5.89062C14.6625 6.20898 14.5922 6.50586 14.4516 6.78125C14.3109 7.05664 14.1176 7.29297 13.8715 7.49023C13.6273 7.68555 13.3305 7.83887 12.9809 7.9502C12.6313 8.06152 12.2543 8.11719 11.85 8.11719C11.6938 8.11719 11.5287 8.10645 11.3549 8.08496C11.183 8.06543 11.0004 8.03125 10.807 7.98242C10.6156 7.93359 10.4311 7.87402 10.2533 7.80371C10.0756 7.7334 9.90469 7.64453 9.74063 7.53711C9.57852 7.42773 9.43691 7.30664 9.31582 7.17383C9.19473 7.04102 9.09805 6.88477 9.02578 6.70508C8.95547 6.52344 8.92031 6.33008 8.92031 6.125C8.92031 5.86523 9.01113 5.64453 9.19277 5.46289C9.37637 5.2793 9.59805 5.1875 9.85781 5.1875C10.1176 5.1875 10.3383 5.2793 10.5199 5.46289C10.7035 5.64453 10.7953 5.86523 10.7953 6.125C10.7953 6.29297 10.7543 6.44824 10.6723 6.59082C10.5922 6.73145 10.4828 6.84375 10.3441 6.92773C10.6371 7.0957 11.0219 7.17969 11.4984 7.17969C11.9223 7.17969 12.2426 7.11426 12.4594 6.9834C12.6781 6.85254 12.7875 6.64453 12.7875 6.35938C12.7875 6.17383 12.7445 6.00781 12.6586 5.86133C12.5727 5.71289 12.4574 5.58887 12.3129 5.48926C12.1684 5.38965 12.0023 5.29785 11.8148 5.21387C11.6273 5.12988 11.4301 5.05078 11.223 4.97656C11.016 4.90039 10.809 4.82227 10.602 4.74219C10.3949 4.66016 10.1977 4.56348 10.0102 4.45215C9.82266 4.33887 9.65664 4.21289 9.51211 4.07422C9.36758 3.93359 9.25234 3.75879 9.16641 3.5498C9.08047 3.33887 9.0375 3.10352 9.0375 2.84375C9.0375 2.52344 9.10098 2.22656 9.22793 1.95312C9.35684 1.67773 9.53652 1.44238 9.76699 1.24707C9.99941 1.0498 10.2846 0.895508 10.6225 0.78418C10.9604 0.672852 11.3305 0.617188 11.7328 0.617188C11.8891 0.617188 12.0512 0.62793 12.2191 0.649414C12.3891 0.668945 12.5658 0.703125 12.7494 0.751953C12.935 0.800781 13.1127 0.860352 13.2826 0.930664C13.4525 1.00098 13.6146 1.09082 13.7689 1.2002C13.9252 1.30762 14.06 1.42773 14.1732 1.56055C14.2865 1.69336 14.3764 1.84961 14.4428 2.0293C14.5111 2.20898 14.5453 2.40234 14.5453 2.60938C14.5453 2.86914 14.4535 3.09082 14.2699 3.27441C14.0883 3.45605 13.8676 3.54688 13.6078 3.54688C13.348 3.54688 13.1264 3.45605 12.9428 3.27441C12.7611 3.09082 12.6703 2.86914 12.6703 2.60938C12.6703 2.43555 12.7143 2.27637 12.8021 2.13184C12.89 1.98535 13.0063 1.87109 13.1508 1.78906C12.891 1.63281 12.5355 1.55469 12.0844 1.55469C11.6723 1.55469 11.3734 1.61914 11.1879 1.74805C11.0043 1.875 10.9125 2.08398 10.9125 2.375Z" fill="white"/>
</svg>
